<?xml version="1.0" encoding="utf-8"?>
<!-- Generator: Adobe Illustrator 25.3.1, SVG Export Plug-In . SVG Version: 6.00 Build 0)  -->
<svg version="1.1" id="Слой_2" xmlns="http://www.w3.org/2000/svg" xmlns:xlink="http://www.w3.org/1999/xlink" x="0px" y="0px"
	 viewBox="0 0 32 32" style="enable-background:new 0 0 32 32;" xml:space="preserve">
<style type="text/css">
	.st0{fill:#731982;}
	.st1{fill:#FFFFFF;}
</style>
<circle class="st0" cx="16" cy="16" r="16"/>
<path id="hertz_24" class="st1" d="M9.3,16c0-2,0.9-3.9,2.4-5.1l-0.9-1c-3.4,2.8-3.8,7.9-1,11.3c0.3,0.4,0.6,0.7,1,1l0.9-1
	C10.2,19.9,9.3,18,9.3,16 M21.1,9.9l-0.9,1c1.5,1.3,2.4,3.1,2.4,5.1c0,2-0.9,3.9-2.4,5.1l0.9,1c3.4-2.8,3.8-7.9,1-11.3
	C21.8,10.5,21.5,10.2,21.1,9.9 M13,19.6l0.9-1.1c-1.4-1.1-1.6-3.2-0.5-4.6c0.1-0.2,0.3-0.3,0.5-0.5L13,12.4c-1,0.9-1.7,2.2-1.7,3.6
	C11.3,17.4,11.9,18.7,13,19.6 M19.3,16c0,1-0.4,1.9-1.2,2.5l0.9,1.1c2-1.7,2.2-4.7,0.5-6.7c-0.2-0.2-0.3-0.4-0.5-0.5l-0.9,1.1
	C18.9,14.1,19.3,15,19.3,16 M17.3,16c0,0.7-0.6,1.3-1.3,1.3c-0.7,0-1.3-0.6-1.3-1.3c0-0.7,0.6-1.3,1.3-1.3
	C16.7,14.7,17.3,15.3,17.3,16"/>
</svg>
