<?xml version="1.0" encoding="utf-8"?>
<!-- Generator: Adobe Illustrator 25.3.1, SVG Export Plug-In . SVG Version: 6.00 Build 0)  -->
<svg version="1.1" id="Слой_2" xmlns="http://www.w3.org/2000/svg" xmlns:xlink="http://www.w3.org/1999/xlink" x="0px" y="0px"
	 viewBox="0 0 32 32" style="enable-background:new 0 0 32 32;" xml:space="preserve">
<style type="text/css">
	.st0{fill:#731982;}
	.st1{fill:#FFFFFF;}
</style>
<circle class="st0" cx="16" cy="16" r="16"/>
<g>
	<path class="st1" d="M18.3,8.3h-4.6c-1.1,0-2.1,0.9-2.2,2.1v11.3c0.1,1.2,1.1,2.1,2.2,2h4.6c1.2,0.1,2.2-0.8,2.2-2V10.4
		C20.4,9.2,19.4,8.3,18.3,8.3z M19.3,21.7c0,0.4-0.5,0.7-1,0.7h-4.6c-0.4,0-0.9-0.3-0.9-0.7V10.4c0.1-0.5,0.5-0.8,1-0.8h4.5
		c0.5,0,0.9,0.3,1,0.8V21.7z"/>
	<rect x="14.7" y="15.4" class="st1" width="2.6" height="1.3"/>
	<rect x="14.7" y="11.5" class="st1" width="2.6" height="1.3"/>
	<rect x="14.7" y="13.4" class="st1" width="2.6" height="1.3"/>
	<circle class="st1" cx="16" cy="20.2" r="1"/>
</g>
</svg>
