<?xml version="1.0" encoding="utf-8"?>
<!-- Generator: Adobe Illustrator 25.3.1, SVG Export Plug-In . SVG Version: 6.00 Build 0)  -->
<svg version="1.1" id="Слой_1" xmlns="http://www.w3.org/2000/svg" xmlns:xlink="http://www.w3.org/1999/xlink" x="0px" y="0px"
	 viewBox="0 0 48 48" style="enable-background:new 0 0 48 48;" xml:space="preserve">
<style type="text/css">
	.st0{fill:#00B956;}
	.st1{fill:#FFFFFF;}
	.st2{fill:#731982;}
</style>
<g>
	<path class="st0" d="M38,48H10C4.5,48,0,43.5,0,38V10C0,4.5,4.5,0,10,0h28c5.5,0,10,4.5,10,10v28C48,43.5,43.5,48,38,48z"/>
</g>
<g id="Artboard">
	<g id="logo_mftv_green" transform="translate(0.000000, 0.000000)">
		<path id="Path_1_" class="st1" d="M20.7,36.2c1.1,0.3,2.2,0.5,3.3,0.4c5.1,0,9.7-3.1,11.6-7.8c2-4.7,0.9-10.1-2.7-13.7
			s-9-4.7-13.7-2.7s-7.8,6.5-7.8,11.6c0,1.8,0.3,3.5,1.1,5.1L11,29.8C10.1,28,9.7,26,9.7,24c0-7.9,6.4-14.3,14.3-14.3
			S38.3,16.1,38.3,24S31.9,38.3,24,38.3c-1.3,0-2.6-0.1-3.8-0.5L20.7,36.2z"/>
		<polygon id="Path_2_" class="st1" points="31,24.1 19.6,18.3 19.6,30 		"/>
		<circle id="Oval" class="st2" cx="12.9" cy="31.5" r="1.6"/>
		<circle id="Oval_1_" class="st2" cx="15.1" cy="34.4" r="1.6"/>
		<circle id="Oval_2_" class="st1" cx="18.3" cy="36" r="1.6"/>
	</g>
</g>
</svg>
