<?xml version="1.0" encoding="utf-8"?>
<!-- Generator: Adobe Illustrator 25.4.1, SVG Export Plug-In . SVG Version: 6.00 Build 0)  -->
<svg version="1.1" id="Слой_1" xmlns="http://www.w3.org/2000/svg" xmlns:xlink="http://www.w3.org/1999/xlink" x="0px" y="0px"
	 viewBox="0 0 116 40" style="enable-background:new 0 0 116 40;" xml:space="preserve">
<style type="text/css">
	.st0{fill:#181A1D;}
	.st1{fill:#FFFFFF;}
</style>
<path id="Прямоугольник_475" class="st0" d="M20,0h76c11,0,20,9,20,20l0,0c0,11-9,20-20,20H20C9,40,0,31,0,20l0,0
	C0,9,9,0,20,0z"/>
<path id="Full-Logotype_Amediateka_full_white" class="st1" d="M84,24.2v-8.1h2.1v3.1h0.1l1.9-3.1h2.4l-2.2,3.6l2.5,4.2v0.3h-2.3
	l-1.7-3.1h-0.8v3.1L84,24.2z M19,19.3l0.9,2.1H19l-0.7,1.7h2.3l0.5,1h2v-0.3L19.4,16h-0.9L15,23.9v0.3h2L19,19.3z M32.2,16.1h0.7
	v8.1h-2.1v-3.6l-1.7,1.8h-0.2l-1.7-1.8v3.6h-2.1v-8.1h0.7l3.1,3.5L32.2,16.1z M40.9,18H38v1.1h2.7v1.8H38v1.4h3v1.8h-5.1v-8.1h5
	L40.9,18z M46.8,24.2h-3v-8.1h3C52,16.1,52,24.2,46.8,24.2L46.8,24.2z M45.8,22.3h1c2.5,0,2.5-4.3,0-4.3h-1V22.3z M57.1,22.3v1.8h-4
	v-1.8h1v-4.4h-0.9v-1.8H57v1.8h-0.9v4.4H57.1z M64.7,23.2h-3.1l-0.5,1h-2v-0.3l3.6-7.9h0.9l3.6,7.9v0.3h-2L64.7,23.2z M63.2,19.3
	l-0.9,2.1h1.8L63.2,19.3z M68,18v-1.8h5.9V18h-1.9v6.2h-2V18H68z M81.4,18h-2.9v1.1h2.7v1.8h-2.7v1.4h3v1.8h-5.1v-8.1h4.9L81.4,18z
	 M98.9,24.2h2v-0.3L97.3,16h-0.9l-3.6,7.9v0.3h2l0.5-1h2.3l-0.7-1.8H96l0.9-2.1L98.9,24.2z"/>
</svg>
