<?xml version="1.0" encoding="utf-8"?>
<!-- Generator: Adobe Illustrator 25.4.1, SVG Export Plug-In . SVG Version: 6.00 Build 0)  -->
<svg version="1.1" id="Слой_1" xmlns="http://www.w3.org/2000/svg" xmlns:xlink="http://www.w3.org/1999/xlink" x="0px" y="0px"
	 viewBox="0 0 116 40" style="enable-background:new 0 0 116 40;" xml:space="preserve">
<style type="text/css">
	.st0{fill-rule:evenodd;clip-rule:evenodd;fill:#FFFFFF;}
</style>
<g id="лого_more.tv" transform="translate(-628 -747)">
	<path id="Прямоугольник_475" d="M648,747h76c11,0,20,9,20,20l0,0c0,11-9,20-20,20h-76c-11,0-20-9-20-20l0,0
		C628,756,637,747,648,747z"/>
	<path id="more_tv__full" class="st0" d="M708,759c0.6,0,1.2,0,1.8,0v1.8c1.2,0,2.4,0,3.6,0c0,0.6,0,1.2,0,1.7c-1.2,0-2.4,0-3.6,0
		c0,1.7,0,3.4,0,5.1c0,2,1.7,3.5,3.6,3.5c0,0,0,0,0,0c0,0.6,0,1.2,0,1.8c-3,0.1-5.4-2.3-5.5-5.2c0,0,0,0,0,0v-5.2
		c-0.6,0-1.2,0-1.8,0c0-0.6,0-1.2,0-1.7c0.6,0,1.2,0,1.8,0C708,760.2,708,759.6,708,759L708,759z M647.7,760.9c2-0.3,4,0.6,5.2,2.3
		c1.7-2.5,5-3.1,7.4-1.4c1.5,1,2.4,2.7,2.4,4.6c0,2.2,0,4.5,0,6.7c-0.6,0-1.2,0-1.8,0c0-2,0-3.9,0-5.8c0-0.7,0-1.3-0.1-1.9
		c-0.5-1.9-2.5-2.9-4.4-2.4c-1.5,0.4-2.6,1.8-2.5,3.4c0,2.3,0,4.5,0,6.8c-0.6,0-1.2,0-1.8,0c0-1.9,0-3.9,0-5.8c0-0.6,0-1.2-0.1-1.8
		c-0.4-1.9-2.3-3.1-4.2-2.6c-1,0.2-1.8,0.9-2.3,1.7c-0.3,0.5-0.4,1.1-0.4,1.7c0,2.3,0,4.5,0,6.8c-0.6,0-1.2,0-1.8,0v-6.3
		c0-0.3,0-0.7,0-1C643.3,763.2,645.2,761.2,647.7,760.9z M670.8,760.9c3.5-0.2,6.4,2.4,6.7,5.8c0.2,3.5-2.4,6.4-5.8,6.7
		c-3.5,0.2-6.4-2.4-6.7-5.8c-0.2-2.5,1.2-4.8,3.4-6C669.1,761.2,670,760.9,670.8,760.9z M681.1,762.8c1-1.3,2.6-2,4.2-1.9
		c0,0.6,0,1.2,0,1.8c-1.1,0-2.1,0.5-2.8,1.3c-0.5,0.6-0.8,1.4-0.8,2.3c0,2.3,0,4.5,0,6.8h-1.8c0-2.3,0-4.5,0-6.8
		C679.9,765,680.3,763.8,681.1,762.8z M715.1,760.8c0.7,0,1.4,0,2.1,0c1.6,3.3,3.2,6.7,4.8,10c1.6-3.3,3.2-6.7,4.8-10
		c0.7,0,1.4,0,2.1,0c-1.9,4.1-3.9,8.1-5.9,12.2c-0.7,0-1.4,0-2.1,0l0,0C719,769,717,764.9,715.1,760.8z M687.8,764
		c1.7-3,5.6-4.1,8.6-2.3c2.1,1.2,3.3,3.4,3.1,5.8c-1.6,0-3.3,0-4.9,0c-1.9,0-3.8,0-5.8,0c0.2,2.4,2.4,4.2,4.8,4
		c0.6,0,1.1-0.2,1.6-0.5c0.9-0.4,1.5-1.1,2-2c0.5,0.3,1.1,0.6,1.6,0.9c-1.7,3-5.5,4.2-8.5,2.5S686.1,767.1,687.8,764L687.8,764z
		 M690.5,763.6c-0.7,0.6-1.3,1.3-1.5,2.2c2.8,0,5.6,0,8.4,0c-0.3-0.9-0.9-1.7-1.7-2.3C694.2,762.4,692.1,762.4,690.5,763.6z
		 M702.9,770.9c0.6-0.1,1.3,0.3,1.4,0.9c0.1,0.6-0.3,1.3-0.9,1.4c-0.6,0.1-1.3-0.3-1.4-0.9c0-0.2,0-0.3,0-0.5
		C702.1,771.4,702.4,771,702.9,770.9L702.9,770.9z"/>
</g>
</svg>
