<svg xmlns="http://www.w3.org/2000/svg" width="24" height="24" viewBox="0 0 24 24"><g transform="translate(-4 -4)"><path d="M16,20.5A4.5,4.5,0,1,0,11.5,16,4.5,4.5,0,0,0,16,20.5Zm0-7A2.5,2.5,0,1,1,13.5,16,2.5,2.5,0,0,1,16,13.5Z"/><path d="M6,22.94,9.06,26l3.23-1,1.52,3h4.38l1.52-3,3.23,1,3.1-3.1L25,19.71l3-1.52V13.81l-3-1.52,1-3.23L22.94,6,19.71,7,18.19,4H13.81L12.29,7,9.06,6,6,9.06l1,3.23L4,13.81v4.38l3,1.52Zm0-6V15l2.92-1.46.37-.88-1-3.1L9.6,8.25l3.1,1,.88-.36L15,6h2l1.46,2.93.88.36,3.1-1L23.75,9.6l-1,3.1.37.88L26,15v2l-2.92,1.46-.37.88,1,3.1L22.4,23.75l-3.1-1-.88.36L17,26H15l-1.46-2.93-.88-.36-3.1,1L8.25,22.4l1-3.1-.37-.88Z"/></g></svg>