<?xml version="1.0" encoding="utf-8"?>
<!-- Generator: Adobe Illustrator 25.3.1, SVG Export Plug-In . SVG Version: 6.00 Build 0)  -->
<svg version="1.1" id="Слой_1" xmlns="http://www.w3.org/2000/svg" xmlns:xlink="http://www.w3.org/1999/xlink" x="0px" y="0px"
	 viewBox="0 0 48 48" style="enable-background:new 0 0 48 48;" xml:space="preserve">
<style type="text/css">
	.st0{fill:#14161A;}
	.st1{fill:#FFFFFF;}
</style>
<g>
	<path class="st0" d="M38,48H10C4.5,48,0,43.5,0,38V10C0,4.5,4.5,0,10,0h28c5.5,0,10,4.5,10,10v28C48,43.5,43.5,48,38,48z"/>
</g>
<g>
	<path class="st1" d="M10.5,15.9c-2.1,0-3,1.2-3,3V21c0,1.9,0.3,2.7,1.7,3.5l1,0.7c0.8,0.5,1,0.9,1,2v1.9c0,0.5-0.2,0.9-0.7,0.9
		s-0.7-0.3-0.7-0.9v-2.9H7.5v2.9c0,1.8,0.9,3,3,3c2.1,0,3.1-1.2,3.1-3v-2.3c0-1.7-0.4-2.6-1.7-3.5l-1-0.7c-0.7-0.5-0.9-0.8-0.9-2
		v-1.7c0-0.5,0.2-0.9,0.7-0.9c0.5,0,0.7,0.3,0.7,0.9v2.9h2.3v-2.9C13.5,17.1,12.6,15.9,10.5,15.9z"/>
	<path class="st1" d="M14.3,18.4h1.6v13.5h2.3V18.4h1.6v-2.2h-5.5V18.4z"/>
	<path class="st1" d="M34.9,16.2v2.2h1.6v13.5h2.3V18.4h1.6v-2.2H34.9z"/>
	<path class="st1" d="M21.2,16.2l-1.3,15.7h2.3l0.3-4.2h1.7l0.3,4.2h2.3l-1.3-15.7H21.2z M22.7,25.5l0.5-7.2h0.3l0.5,7.2H22.7z"/>
	<path class="st1" d="M34.1,30.7v-4.1c0-1.3-0.5-2-1.7-2.3V24c1.2-0.2,1.8-1.1,1.8-2.5v-2.7c0-1.7-1-2.8-3-2.8h-3.1v15.7h2.3v-6.6
		h1.4v5.4c0,0.9,0.4,1.2,0.4,1.2h2.3C34.5,31.9,34.1,31.6,34.1,30.7z M31.9,21.7c0,1.1-0.2,1.5-1,1.5h-0.5v-4.9H31
		c0.7,0,0.9,0.3,0.9,1.5V21.7z"/>
</g>
</svg>
