<svg xmlns="http://www.w3.org/2000/svg" width="24" height="22.5" viewBox="0 0 24 22.5">
  <g id="Сгруппировать_175" data-name="Сгруппировать 175" transform="translate(-59.528 -212.598)">
    <path id="Контур_17" data-name="Контур 17" d="M62.528,230.6h8.25v3h-5.25v1.5h12v-1.5h-5.25v-3h8.25a3,3,0,0,0,3-3v-12a3,3,0,0,0-3-3h-18a3,3,0,0,0-3,3v12A3,3,0,0,0,62.528,230.6Zm-1.5-15a1.5,1.5,0,0,1,1.5-1.5h18a1.5,1.5,0,0,1,1.5,1.5v12a1.5,1.5,0,0,1-1.5,1.5h-18a1.5,1.5,0,0,1-1.5-1.5Zm4.5,6a1.5,1.5,0,1,1,1.5,1.5A1.5,1.5,0,0,1,65.528,221.6Zm4.5,0a1.5,1.5,0,1,1,1.5,1.5A1.5,1.5,0,0,1,70.028,221.6Zm4.5,0a1.5,1.5,0,1,1,1.5,1.5A1.5,1.5,0,0,1,74.528,221.6Z"/>
  </g>
</svg>
