<?xml version="1.0" encoding="utf-8"?>
<!-- Generator: Adobe Illustrator 25.3.1, SVG Export Plug-In . SVG Version: 6.00 Build 0)  -->
<svg version="1.1" id="Слой_1" xmlns="http://www.w3.org/2000/svg" xmlns:xlink="http://www.w3.org/1999/xlink" x="0px" y="0px"
	 viewBox="0 0 48 48" style="enable-background:new 0 0 48 48;" xml:space="preserve">
<style type="text/css">
	.st0{fill:#FFFFFF;}
</style>
<g>
	<path d="M38,48H10C4.5,48,0,43.5,0,38V10C0,4.5,4.5,0,10,0h28c5.5,0,10,4.5,10,10v28C48,43.5,43.5,48,38,48z"/>
</g>
<g id="Brand">
	<g id="Kit" transform="translate(-1100.000000, -2700.000000)">
		<path id="Sign_x2F_Amediateka_x5F_sign_x5F_white" class="st0" d="M1134.8,2730.9c-0.1-0.4-0.6-0.6-0.9-0.7
			c-0.4-0.2-0.4-0.5-0.2-0.7c0.2-0.1,0.3-0.2,1.6-0.8c1.3-0.6-0.4-0.9-1.2-1.4c-0.6-0.4-0.9-0.9-1-1.2c0-0.1-0.1-0.1-0.1-0.1
			l-6.1-17.4h-5.9l-6.1,17.2l-0.1,0.1c0,0-0.4,0.9,0.1,1.4c0.4,0.3,1.3,0.7-0.1,1.4c-1.3,0.6-1.8,0.8-2,0.9
			c-0.2,0.1-0.3,0.5,0.1,0.5c0.3,0.1,0.3,0.5,0.2,0.9c-0.1,0.4-0.3,0.7-0.3,0.7l-2.8,7.8h5.9l2.8-7.9c0,0,0.1-0.2,0.3-0.6
			c0.1-0.4,0.1-0.8-0.2-0.9c-0.3-0.1-0.3-0.4-0.1-0.5c0.2-0.1,0.7-0.3,2-0.9c1.3-0.6,0.5-1.1,0.1-1.4c-0.5-0.4-0.1-1.4-0.1-1.4
			l3.2-9l3.4,9.6h-5c-0.1,0.3,0,0.6,0.3,0.8c0.4,0.3,1.3,0.7-0.1,1.4c-1.3,0.6-1.8,0.8-2,0.9c-0.2,0.1-0.3,0.5,0.1,0.5
			s0.3,0.5,0.2,0.9c-0.1,0.4-0.3,0.9-0.3,0.9v0.1h8.9l2.6,7.4h5.9l-2.9-7.9C1135,2731.6,1135,2731.4,1134.8,2730.9z"/>
	</g>
</g>
</svg>
