<?xml version="1.0" encoding="utf-8"?>
<!-- Generator: Adobe Illustrator 25.3.1, SVG Export Plug-In . SVG Version: 6.00 Build 0)  -->
<svg version="1.1" id="Слой_2" xmlns="http://www.w3.org/2000/svg" xmlns:xlink="http://www.w3.org/1999/xlink" x="0px" y="0px"
	 viewBox="0 0 32 32" style="enable-background:new 0 0 32 32;" xml:space="preserve">
<style type="text/css">
	.st0{fill:#731982;}
	.st1{fill:#FFFFFF;}
</style>
<circle class="st0" cx="16" cy="16" r="16"/>
<g>
	<path class="st1" d="M16,14.5c-0.8,0-1.5,0.7-1.5,1.5c0,0.6,0.4,1.1,0.9,1.4v6.1h1.2v-6.1c0.5-0.2,0.9-0.8,0.9-1.4
		C17.5,15.2,16.8,14.5,16,14.5z"/>
	<path class="st1" d="M22.9,13C21.7,10.3,19,8.5,16,8.5c-4.1,0-7.5,3.4-7.5,7.5c0,3,1.8,5.7,4.5,6.9l0.2-1.2
		c-3.1-1.5-4.4-5.3-2.9-8.4c1.5-3.1,5.3-4.4,8.4-2.9c2.1,1,3.5,3.2,3.5,5.6c0,2.4-1.4,4.6-3.5,5.6l0.2,1.2
		C22.8,21.2,24.5,16.8,22.9,13z"/>
	<polygon class="st1" points="13.7,19.7 13.7,19.7 13.7,19.7 	"/>
	<path class="st1" d="M20.5,16c0-2.4-2-4.4-4.4-4.4c-2.4,0-4.4,2-4.4,4.4c-0.1,1.5,0.6,2.9,1.9,3.7l0.3-1.4
		c-1.3-1.1-1.4-3.1-0.3-4.4c1.1-1.3,3.1-1.4,4.4-0.3c1.3,1.1,1.4,3.1,0.3,4.4c-0.1,0.1-0.2,0.2-0.3,0.3l0.3,1.4
		C19.7,18.9,20.5,17.5,20.5,16z"/>
</g>
</svg>
