<?xml version="1.0" encoding="utf-8"?>
<!-- Generator: Adobe Illustrator 25.3.1, SVG Export Plug-In . SVG Version: 6.00 Build 0)  -->
<svg version="1.1" id="Слой_2" xmlns="http://www.w3.org/2000/svg" xmlns:xlink="http://www.w3.org/1999/xlink" x="0px" y="0px"
	 viewBox="0 0 32 32" style="enable-background:new 0 0 32 32;" xml:space="preserve">
<style type="text/css">
	.st0{fill:#731982;}
	.st1{fill:#FFFFFF;}
</style>
<circle class="st0" cx="16" cy="16" r="16"/>
<g id="speed-2" transform="translate(-76.296 -167)">
	<path id="Контур_215" class="st1" d="M85.8,187.8c-2.4-3.4-1.8-8,1.2-10.7c3-2.8,7.7-2.8,10.7,0c3,2.8,3.5,7.4,1.1,10.7
		l-1.1-0.8c2.2-3,1.5-7.3-1.6-9.5c-0.2-0.1-0.3-0.2-0.5-0.3c-2.1-1.2-4.6-1.2-6.7,0c-3.2,1.9-4.3,6.1-2.4,9.3
		c0.1,0.2,0.2,0.3,0.3,0.5L85.8,187.8z"/>
	<circle id="Эллипс_69" class="st1" cx="92.3" cy="185.7" r="1.6"/>
	<path id="Контур_216" class="st1" d="M96.9,180.1l-0.5-0.3l-4.7,5.5l1.5,1.2L96.9,180.1z M92.4,189.7c-0.4,0-0.6,0.3-0.6,0.6
		c0,0.4,0.3,0.6,0.6,0.6c0.4,0,0.6-0.3,0.6-0.6C93.1,190,92.9,189.7,92.4,189.7C92.5,189.7,92.5,189.7,92.4,189.7L92.4,189.7z"/>
</g>
</svg>
