<?xml version="1.0" encoding="utf-8"?>
<!-- Generator: Adobe Illustrator 25.3.1, SVG Export Plug-In . SVG Version: 6.00 Build 0)  -->
<svg version="1.1" id="Слой_2" xmlns="http://www.w3.org/2000/svg" xmlns:xlink="http://www.w3.org/1999/xlink" x="0px" y="0px"
	 viewBox="0 0 32 32" style="enable-background:new 0 0 32 32;" xml:space="preserve">
<style type="text/css">
	.st0{fill:#731982;}
	.st1{fill:#FFFFFF;}
</style>
<circle class="st0" cx="16" cy="16" r="16"/>
<path id="Router_16" class="st1" d="M22,10.5c-3.3-3.3-8.7-3.3-12,0L9.3,9.8c3.7-3.7,9.7-3.7,13.4,0L22,10.5z M13.5,14l0.7,0.7
	c1-0.9,2.6-0.9,3.5,0l0.7-0.7C17.1,12.7,14.9,12.7,13.5,14z M20.6,11.9c-2.5-2.5-6.6-2.5-9.2,0l0.7,0.7c2.2-2.1,5.6-2.1,7.8,0
	L20.6,11.9z M9,17.2l0.3-0.1c4.3-1.5,9-1.5,13.3,0l0.3,0.1V23H9V17.2z M10,22h12v-4c-3.9-1.3-8.1-1.3-12,0V22z M14,20h4v-1h-4V20z"
	/>
</svg>
