<svg xmlns="http://www.w3.org/2000/svg" xmlns:xlink="http://www.w3.org/1999/xlink" width="21.534" height="24" viewBox="0 0 21.534 24">
  <defs>
    <clipPath id="clip-path">
      <path id="Контур_232" data-name="Контур 232" d="M109.326-365c0,.1-.1.2-.1.3v23.2c0,.2.1.3.2.5l11.306-12.1Zm12.2,12.7,2.975,3-4.165,2.4s-5.355,3-8.231,4.7Zm.793-.8,3.174,3.3c.5-.3,4.364-2.5,4.86-2.8.6-.3.5-.8,0-1-.5-.3-4.264-2.5-4.86-2.8l-3.174,3.3Zm-.793-.8,2.975-3.2-4.264-2.4s-6.843-4-9.223-5.3l10.512,10.9Z" transform="translate(-109.227 365)"/>
    </clipPath>
  </defs>
  <g id="Сгруппировать_389" data-name="Сгруппировать 389" transform="translate(-109.227 365)">
    <g id="Сгруппировать_388" data-name="Сгруппировать 388" transform="translate(109.227 -365)" clip-path="url(#clip-path)">
      <path id="Контур_231" data-name="Контур 231" d="M104.227-370h22.342v24.808H104.227Z" transform="translate(-104.631 369.596)"/>
    </g>
  </g>
</svg>
