<svg viewBox="0 0 32 32">
    <circle style="fill: #00b956" cx="16" cy="16" r="16"/>
    <g>
        <path style="fill: #fff" d="M22.5,8.1h-13c-1.1,0-2,0.9-2,2v8.4c0,1.1,0.9,2,2,2h5.8v2h-2.6v1.3h6.5v-1.3h-2.5v-2h5.8c1.1,0,2-0.9,2-2
        v-8.4C24.5,9.1,23.6,8.1,22.5,8.1z M23.2,18.6c0,0.4-0.3,0.7-0.7,0.7h-13c-0.4,0-0.7-0.3-0.7-0.7v-8.4c0-0.4,0.3-0.7,0.7-0.7h13
        c0.4,0,0.7,0.3,0.7,0.7V18.6z"/>
        <circle style="fill: #fff" cx="12.7" cy="14.4" r="1"/>
        <circle style="fill: #fff" cx="16" cy="14.4" r="1"/>
        <circle style="fill: #fff" cx="19.2" cy="14.4" r="1"/>
    </g>
</svg>