<svg xmlns="http://www.w3.org/2000/svg" width="24" height="18.4" viewBox="0 0 24 18.4"><path d="M6,16.2A10.1,10.1,0,0,1,9.6,8.5L8.3,7a11.992,11.992,0,0,0,0,18.4l1.3-1.5A9.941,9.941,0,0,1,6,16.2M23.7,7,22.4,8.5A9.941,9.941,0,0,1,26,16.2a10.1,10.1,0,0,1-3.6,7.7l1.3,1.5A11.992,11.992,0,0,0,23.7,7M11.5,21.6,12.8,20a4.911,4.911,0,0,1,0-7.6l-1.3-1.6A7.272,7.272,0,0,0,9,16.2a7.109,7.109,0,0,0,2.5,5.4M21,16.2A4.945,4.945,0,0,1,19.2,20l1.3,1.6a7.082,7.082,0,0,0,0-10.8l-1.3,1.6A4.945,4.945,0,0,1,21,16.2m-3,0a2,2,0,1,1-2-2,2.006,2.006,0,0,1,2,2" transform="translate(-4 -7)"/></svg>