<?xml version="1.0" encoding="utf-8"?>
<!-- Generator: Adobe Illustrator 25.4.1, SVG Export Plug-In . SVG Version: 6.00 Build 0)  -->
<svg version="1.1" id="Слой_1" xmlns="http://www.w3.org/2000/svg" xmlns:xlink="http://www.w3.org/1999/xlink" x="0px" y="0px"
	 viewBox="0 0 32 32" style="enable-background:new 0 0 32 32;" xml:space="preserve">
<style type="text/css">
	.st0{fill:#00B956;}
	.st1{fill:#FFFFFF;}
	.st2{fill:#731982;}
</style>
<g id="Artboard_00000091698287133564642030000015601698198310556347_">
	<g id="logo_mftv_green_00000091016636852617594620000016390092816182506927_" transform="translate(0.000000, 0.000000)">
		<path id="Path_00000008146893383560321720000013524403964384381105_" class="st0" d="M32,16c0,2.2-0.5,4.4-1.3,6.4
			c-0.1,0.2-0.2,0.5-0.3,0.7C27.7,28.5,22.1,32,16,32S4.4,28.5,1.7,23.1c-0.1-0.2-0.2-0.5-0.3-0.7C0.5,20.4,0,18.2,0,16
			c0-2.5,0.6-4.9,1.7-7.1C1.8,8.7,1.9,8.5,2,8.2c0.7-1.3,1.6-2.5,2.7-3.6c6.2-6.2,16.4-6.2,22.6,0c1.1,1.1,2,2.3,2.7,3.6
			c0.1,0.2,0.2,0.4,0.4,0.7C31.4,11.1,32,13.5,32,16L32,16z"/>
		<path id="Path_00000108993823908816532750000010605891799379488955_" class="st1" d="M13.9,23.7c0.7,0.2,1.4,0.3,2.1,0.3
			c3.2,0,6.2-2,7.4-5s0.6-6.5-1.7-8.8c-2.3-2.3-5.8-3-8.8-1.7s-5,4.2-5,7.4c0,1.1,0.2,2.2,0.7,3.3l-1,0.4c-0.5-1.2-0.8-2.4-0.8-3.7
			c0-5,4.1-9.1,9.1-9.1s9.1,4.1,9.1,9.1S21,25,16,25c-0.8,0-1.6-0.1-2.4-0.3L13.9,23.7z"/>
		<polygon id="Path_00000052092429562376004330000010986573407677851038_" class="st1" points="20.5,16 13.2,12.3 13.2,19.7 		"/>
		<circle id="Oval_00000115478370806113581940000011888516402198615199_" class="st2" cx="8.9" cy="20.7" r="1"/>
		<circle id="Oval_00000166646336688451268430000003611496056681312918_" class="st2" cx="10.3" cy="22.5" r="1"/>
		<circle id="Oval_00000029739528612755827440000014350124941523297928_" class="st1" cx="12.4" cy="23.5" r="1"/>
	</g>
</g>
</svg>
