<svg xmlns="http://www.w3.org/2000/svg" xmlns:xlink="http://www.w3.org/1999/xlink" width="14.401" height="24" viewBox="0 0 14.401 24">
  <defs>
    <clipPath id="clip-path">
      <path id="Контур_388" data-name="Контур 388" d="M343.6-40.081a.8.8,0,0,1,.8.8l0,.043v1.989h-.01a7.253,7.253,0,0,1-6.394,7.207v2.432h3.015v.01h.033a.8.8,0,0,1,.8.8.8.8,0,0,1-.8.8l-.033,0v0H333.36a.8.8,0,0,1-.8-.8.8.8,0,0,1,.8-.8h.029v-.011h3.021v-2.432A7.247,7.247,0,0,1,330-37.249c0-.035.005-.067.006-.1v-1.833a.807.807,0,0,1-.006-.1.8.8,0,0,1,.8-.8.8.8,0,0,1,.8.8l0,.066V-37h0v.006l0,.086h0v.3h.015a5.635,5.635,0,0,0,5.42,5.162h.323a5.633,5.633,0,0,0,5.421-5.162h.019v-2.666a.009.009,0,0,0,.006-.01A.8.8,0,0,1,343.6-40.081ZM341.515-38.6c0,.483,0,.992-.026,1.475a6.081,6.081,0,0,1-.2,1.29,4.2,4.2,0,0,1-1.52,2.215,4.154,4.154,0,0,1-5.146,0,4.166,4.166,0,0,1-1.521-2.215,5.992,5.992,0,0,1-.2-1.29c-.028-.483-.025-.992-.025-1.475v-4.045c0-.48,0-2.6,0-2.96a4.6,4.6,0,0,1,.224-1.29A4.25,4.25,0,0,1,337.2-50a4.25,4.25,0,0,1,4.094,3.108,6.156,6.156,0,0,1,.224,1.29c.029.483,0,2.48,0,2.96V-38.6Zm-1.6.755c0,.307-.006.41-.026.717a3.787,3.787,0,0,1-.125.826,2.7,2.7,0,0,1-.951,1.427,2.631,2.631,0,0,1-3.229,0,2.688,2.688,0,0,1-.954-1.427,4,4,0,0,1-.125-.826c-.016-.307-.019-.41-.019-.717,0-4.256-.019-7.412.006-7.751a4.244,4.244,0,0,1,.138-.826,2.688,2.688,0,0,1,.954-1.427,2.631,2.631,0,0,1,3.229,0,2.7,2.7,0,0,1,.951,1.427,3.835,3.835,0,0,1,.154.826C339.94-45.228,339.915-42.11,339.915-37.841Z" transform="translate(0 0)" clip-rule="evenodd"/>
    </clipPath>
  </defs>
  <g id="Сгруппировать_564" data-name="Сгруппировать 564" transform="translate(-330 50)" clip-path="url(#clip-path)">
    <path id="Контур_387" data-name="Контур 387" d="M325-55h24v33.6H325Z" transform="translate(0.2 0.199)"/>
  </g>
</svg>
