<svg xmlns="http://www.w3.org/2000/svg" width="176" height="52.148" viewBox="0 0 176 52.148"><defs><style>.a{fill:#fff;}</style></defs><path d="M169.742,52.148H6.167A6.18,6.18,0,0,1,0,45.982V6.167A6.167,6.167,0,0,1,6.167,0H169.742A6.258,6.258,0,0,1,176,6.167V45.982A6.258,6.258,0,0,1,169.742,52.148Z" transform="translate(0)"/><path class="a" d="M35.87,22.232a7.719,7.719,0,0,1,3.673-6.468A7.905,7.905,0,0,0,33.315,12.4c-2.662-.279-5.15,1.57-6.495,1.57s-3.42-1.544-5.63-1.491a8.291,8.291,0,0,0-6.974,4.259c-3.021,5.217-.772,12.9,2.129,17.115,1.451,2.063,3.141,4.379,5.323,4.3s2.968-1.331,5.576-1.331,3.34,1.331,5.6,1.331,3.78-2.076,5.177-4.166a17.075,17.075,0,0,0,2.369-4.818,7.453,7.453,0,0,1-4.525-6.934Z" transform="translate(4.229 3.441)"/><path class="a" d="M28.188,11.663A7.6,7.6,0,0,0,29.931,6.22a7.732,7.732,0,0,0-5,2.582,7.227,7.227,0,0,0-1.783,5.244A6.388,6.388,0,0,0,28.188,11.663Z" transform="translate(6.999 1.86)"/><path class="a" d="M57.369,35.9H54.334l-1.65-5.2H46.935l-1.584,5.2H42.41l5.7-17.7h3.527Zm-5.177-7.32L50.7,23.949q-.253-.759-.852-3.354h0q-.266,1.131-.838,3.34l-1.584,4.645Z" transform="translate(12.775 5.281)"/><path class="a" d="M67.717,28.205a7.253,7.253,0,0,1-1.757,5.15,5.15,5.15,0,0,1-3.913,1.677,3.913,3.913,0,0,1-3.62-1.81h0v6.721h-2.9V26.182q0-2.05-.106-4.206h2.5L58.082,24h0a5.044,5.044,0,0,1,8.078-.506,7.04,7.04,0,0,1,1.557,4.711Zm-2.888.106a5.323,5.323,0,0,0-.838-3.074,2.9,2.9,0,0,0-2.475-1.264,2.954,2.954,0,0,0-1.9.692,3.234,3.234,0,0,0-1.118,1.823,3.713,3.713,0,0,0-.133.865v2.129a3.407,3.407,0,0,0,.852,2.356,2.835,2.835,0,0,0,2.223.958,2.9,2.9,0,0,0,2.5-1.238A5.43,5.43,0,0,0,64.829,28.312Z" transform="translate(16.721 6.096)"/><path class="a" d="M78.757,28.205A7.253,7.253,0,0,1,77,33.356a5.137,5.137,0,0,1-3.913,1.677,3.913,3.913,0,0,1-3.62-1.81h0v6.721h-2.9V26.182q0-2.05-.106-4.206h2.5L69.122,24h0a5.044,5.044,0,0,1,8.078-.506,7.054,7.054,0,0,1,1.557,4.711Zm-2.888.106a5.324,5.324,0,0,0-.838-3.074A2.9,2.9,0,0,0,72.5,23.973a2.955,2.955,0,0,0-1.9.692,3.221,3.221,0,0,0-1.118,1.823,3.792,3.792,0,0,0-.133.865v2.129a3.42,3.42,0,0,0,.852,2.356,2.835,2.835,0,0,0,2.3.9A2.9,2.9,0,0,0,75,31.506,5.43,5.43,0,0,0,75.869,28.312Z" transform="translate(20.051 6.096)"/><path class="a" d="M90.73,31.006a4.724,4.724,0,0,1-1.57,3.673,6.974,6.974,0,0,1-4.818,1.557,8.451,8.451,0,0,1-4.591-1.1l.652-2.369a7.772,7.772,0,0,0,4.1,1.131,3.873,3.873,0,0,0,2.5-.719,2.369,2.369,0,0,0,.892-1.93,2.462,2.462,0,0,0-.732-1.81A6.84,6.84,0,0,0,84.714,28.1q-4.631-1.783-4.631-5.124a4.5,4.5,0,0,1,1.664-3.647A6.428,6.428,0,0,1,86.085,18a8.6,8.6,0,0,1,3.993.838L89.4,21.157a6.974,6.974,0,0,0-3.394-.812,3.434,3.434,0,0,0-2.342.732,2.1,2.1,0,0,0-.705,1.6,2.169,2.169,0,0,0,.812,1.73,9.2,9.2,0,0,0,2.582,1.331,8.744,8.744,0,0,1,3.367,2.156,4.5,4.5,0,0,1,1.011,3.114Z" transform="translate(24.079 5.209)"/><path class="a" d="M97.029,24.83H93.9v6.2q0,2.369,1.65,2.369a5.044,5.044,0,0,0,1.264-.133l.093,2.143a6.428,6.428,0,0,1-2.209.319,3.407,3.407,0,0,1-2.662-1.025,5.031,5.031,0,0,1-.945-3.447V24.83H89.23V22.7h1.863V20.358l2.781-.838V22.7H97Z" transform="translate(26.99 5.696)"/><path class="a" d="M108.8,28.256a7,7,0,0,1-1.677,4.831,6,6,0,0,1-4.685,1.943,5.709,5.709,0,0,1-4.472-1.863,6.787,6.787,0,0,1-1.664-4.7,6.934,6.934,0,0,1,1.717-4.858,5.949,5.949,0,0,1,4.631-1.89,5.829,5.829,0,0,1,4.525,1.863A6.654,6.654,0,0,1,108.8,28.256Zm-2.941.093a5.749,5.749,0,0,0-.759-3.034,2.808,2.808,0,0,0-2.542-1.53,2.848,2.848,0,0,0-2.662,1.53,5.856,5.856,0,0,0-.759,3.088,5.736,5.736,0,0,0,.759,3.008,2.9,2.9,0,0,0,5.124,0,5.763,5.763,0,0,0,.838-3.061Z" transform="translate(29.05 6.398)"/><path class="a" d="M114.324,24.468a4.924,4.924,0,0,0-.892-.08,2.662,2.662,0,0,0-2.316,1.131,4.246,4.246,0,0,0-.705,2.529V34.7h-2.835V25.959q0-2.209-.106-3.993h2.475l.106,2.449h.08a4.365,4.365,0,0,1,1.424-2.023,3.434,3.434,0,0,1,2.05-.679,4.551,4.551,0,0,1,.705,0Z" transform="translate(32.523 6.4)"/><path class="a" d="M124.988,27.747a6.655,6.655,0,0,1-.106,1.331h-8.517a3.7,3.7,0,0,0,1.238,2.888,4.219,4.219,0,0,0,2.781.892,9.409,9.409,0,0,0,3.447-.6l.439,1.97a10.647,10.647,0,0,1-4.285.785,6.2,6.2,0,0,1-4.671-1.743,6.455,6.455,0,0,1-1.69-4.685,7.32,7.32,0,0,1,1.584-4.8,5.443,5.443,0,0,1,4.472-2.05,4.764,4.764,0,0,1,4.179,2.05,6.907,6.907,0,0,1,1.131,3.966Zm-2.662-.732a3.86,3.86,0,0,0-.546-2.183,2.475,2.475,0,0,0-2.262-1.184,2.662,2.662,0,0,0-2.262,1.158,4.232,4.232,0,0,0-.838,2.209h5.909Z" transform="translate(33.924 6.401)"/><path class="a" d="M43.48,7.43A5.017,5.017,0,0,1,44.5,6.977a4.352,4.352,0,0,1,1.331-.186,3.021,3.021,0,0,1,1.97.6,1.956,1.956,0,0,1,.719,1.6,1.943,1.943,0,0,1-.479,1.331,2.342,2.342,0,0,1-1.238.719h0a3.168,3.168,0,0,1,.785.226,2.116,2.116,0,0,1,.652.426,2.036,2.036,0,0,1,.439.639,1.956,1.956,0,0,1,.16.8,2.342,2.342,0,0,1-.293,1.211,2.435,2.435,0,0,1-.759.8,3.194,3.194,0,0,1-1.051.439,5.164,5.164,0,0,1-1.158.133,5.936,5.936,0,0,1-1.224-.133,3.806,3.806,0,0,1-1.118-.426l.346-1.078a5.324,5.324,0,0,0,.865.319,3.766,3.766,0,0,0,1.078.16,2.1,2.1,0,0,0,1.331-.4,1.464,1.464,0,0,0,.346-1.757,1.411,1.411,0,0,0-.506-.466,2.2,2.2,0,0,0-.692-.226,4.565,4.565,0,0,0-.759,0h-.586V10.637h.586a2.515,2.515,0,0,0,.745-.106,1.89,1.89,0,0,0,.6-.293,1.331,1.331,0,0,0,.4-.452,1.2,1.2,0,0,0,.146-.586,1.1,1.1,0,0,0-.413-.9,1.73,1.73,0,0,0-1.145-.359,3.1,3.1,0,0,0-.958.16,7.053,7.053,0,0,0-.852.333Z" transform="translate(13.094 2.024)"/><path class="a" d="M52.723,15.032l-.106-.719h0a2.129,2.129,0,0,1-1.837.865,2.036,2.036,0,0,1-.772-.146,1.9,1.9,0,0,1-.612-.386,1.7,1.7,0,0,1-.4-.586,1.876,1.876,0,0,1-.146-.732,1.93,1.93,0,0,1,.958-1.757,5.2,5.2,0,0,1,2.662-.586v-.12q0-1.238-1.331-1.238a2.915,2.915,0,0,0-1.637.466l-.24-.958a3.993,3.993,0,0,1,2.156-.546q2.462,0,2.462,2.6V13.5a9.5,9.5,0,0,0,.093,1.5H52.723Zm-.2-3.128a3.913,3.913,0,0,0-1.743.293,1.011,1.011,0,0,0-.572.972.945.945,0,0,0,.266.732.972.972,0,0,0,.679.24,1.336,1.336,0,0,0,1.291-.759,1.158,1.158,0,0,0,.12-.506Z" transform="translate(14.796 2.575)"/><path class="a" d="M58.673,8.72V9.865H56.011v5.124H54.68V8.72Z" transform="translate(16.573 2.617)"/><path class="a" d="M65.146,11.785a4.325,4.325,0,0,1-.2,1.331,3.181,3.181,0,0,1-.572,1.065,2.555,2.555,0,0,1-2.01.932,1.93,1.93,0,0,1-1.783-.892h0v3.3H59.25V8.751h1.224l.08,1h0A2.329,2.329,0,0,1,62.67,8.631a2.3,2.3,0,0,1,1.025.226,2.515,2.515,0,0,1,.825.652,3.114,3.114,0,0,1,.546,1.011A3.993,3.993,0,0,1,65.146,11.785Zm-1.424,0a3.181,3.181,0,0,0-.106-.852,1.97,1.97,0,0,0-.319-.665,1.57,1.57,0,0,0-.519-.439,1.451,1.451,0,0,0-1.264,0,1.584,1.584,0,0,0-.492.346,1.73,1.73,0,0,0-.466,1.184V12.41a1.823,1.823,0,0,0,.106.639,1.557,1.557,0,0,0,.306.519,1.4,1.4,0,0,0,.479.346,1.491,1.491,0,0,0,.612.12,1.437,1.437,0,0,0,1.224-.6,2.662,2.662,0,0,0,.439-1.57Z" transform="translate(17.94 2.573)"/><path class="a" d="M70.809,8.72l-1.6,4.365a19.524,19.524,0,0,1-1.1,2.542,5.656,5.656,0,0,1-1.025,1.451,3.088,3.088,0,0,1-1.531.785l-.333-1.171a2.662,2.662,0,0,0,1.038-.559,3.088,3.088,0,0,0,.785-1.038.785.785,0,0,0,.106-.279,1.171,1.171,0,0,0-.08-.293L64.78,8.72h1.53l1.184,3.5a2.487,2.487,0,0,0,.186.559l.2.679h0a3.232,3.232,0,0,1,.146-.519c.053-.213.12-.452.2-.732L69.292,8.72h1.491Z" transform="translate(19.613 2.599)"/><path class="a" d="M71.408,11.362h.639a1.956,1.956,0,0,0,1.091-.253.759.759,0,0,0,.386-.639.719.719,0,0,0-.333-.626,1.557,1.557,0,0,0-.9-.24,2.449,2.449,0,0,0-.759.12,3.993,3.993,0,0,0-.705.306l-.346-.9a3.859,3.859,0,0,1,1.078-.413,5.323,5.323,0,0,1,1.025-.093,4.5,4.5,0,0,1,.865.08,2.382,2.382,0,0,1,.772.279,1.65,1.65,0,0,1,.546.519,1.424,1.424,0,0,1,.213.8,1.118,1.118,0,0,1-.12.519,1.33,1.33,0,0,1-.306.4,1.664,1.664,0,0,1-.426.279,2.316,2.316,0,0,1-.479.16h0a2.489,2.489,0,0,1,.6.16,2.063,2.063,0,0,1,.519.306,1.517,1.517,0,0,1,.373.452,1.331,1.331,0,0,1,.146.6,1.53,1.53,0,0,1-.266.932,1.943,1.943,0,0,1-.692.6,3.34,3.34,0,0,1-.918.319,5.244,5.244,0,0,1-.985.093,5.443,5.443,0,0,1-1.145-.12,3.606,3.606,0,0,1-1.025-.386l.359-.918a3.713,3.713,0,0,0,.772.306,3.247,3.247,0,0,0,.878.12,1.837,1.837,0,0,0,1.091-.279.838.838,0,0,0,.386-.692.785.785,0,0,0-.133-.452.945.945,0,0,0-.359-.306,1.77,1.77,0,0,0-.546-.16,4.578,4.578,0,0,0-.665,0h-.652Z" transform="translate(21.28 2.585)"/><path class="a" d="M77.038,8.72V13.6h0l.479-.958L78,11.688,79.54,8.72h1.81v6.268H80.019V11.435a10.592,10.592,0,0,1,.067-1.411h0a9.317,9.317,0,0,1-.439,1.011l-.439.878-.8,1.544q-.4.772-.825,1.584H75.72V8.72Z" transform="translate(22.93 2.616)"/><path class="a" d="M86.727,8.72V9.865H84.811v5.124H83.48V9.865H81.55V8.72Z" transform="translate(24.701 2.617)"/><path class="a" d="M92.183,11.6v.346a2.329,2.329,0,0,1,0,.293H87.951a1.837,1.837,0,0,0,.559,1.331,2.036,2.036,0,0,0,1.411.479,4.685,4.685,0,0,0,1.69-.293l.213.972a5.323,5.323,0,0,1-2.1.386,3.607,3.607,0,0,1-1.331-.226,2.662,2.662,0,0,1-.985-.639,2.821,2.821,0,0,1-.612-1,3.819,3.819,0,0,1-.213-1.331,4.112,4.112,0,0,1,.213-1.331,3.287,3.287,0,0,1,.6-1.065,2.808,2.808,0,0,1,.932-.705,2.848,2.848,0,0,1,1.224-.253,2.662,2.662,0,0,1,1.078.213,2.276,2.276,0,0,1,.825.612,2.662,2.662,0,0,1,.519.945,3.819,3.819,0,0,1,.213,1.264Zm-1.331-.359a1.89,1.89,0,0,0-.359-1.2,1.224,1.224,0,0,0-1.025-.452,1.331,1.331,0,0,0-1.038.466,1.97,1.97,0,0,0-.492,1.184Z" transform="translate(26.219 2.57)"/><path class="a" d="M95,8.789c.253,0,.572-.08.958-.106s.785,0,1.184,0h.865a3.58,3.58,0,0,1,.918.2,1.837,1.837,0,0,1,.732.479,1.251,1.251,0,0,1,.293.878,1.224,1.224,0,0,1-.106.506,1.331,1.331,0,0,1-.279.4,1.53,1.53,0,0,1-.4.279,1.956,1.956,0,0,1-.466.16h0a2.2,2.2,0,0,1,1.1.492,1.331,1.331,0,0,1,.519,1.025,1.477,1.477,0,0,1-.359,1.051,2.262,2.262,0,0,1-.892.586,4.365,4.365,0,0,1-1.118.253H95.067Zm1.331,2.5h.705a3.993,3.993,0,0,0,.612,0,2.023,2.023,0,0,0,.506-.146.865.865,0,0,0,.346-.253.639.639,0,0,0,.12-.4.665.665,0,0,0-.359-.626,2.369,2.369,0,0,0-1.118-.2h-.825Zm0,2.781h.838a4.339,4.339,0,0,0,.586,0,1.93,1.93,0,0,0,.546-.146,1,1,0,0,0,.386-.293.772.772,0,0,0,.173-.532.745.745,0,0,0-.479-.745,3.327,3.327,0,0,0-1.331-.2h-.719v1.877Z" transform="translate(28.773 2.602)"/></svg>