<?xml version="1.0" encoding="utf-8"?>
<!-- Generator: Adobe Illustrator 25.4.1, SVG Export Plug-In . SVG Version: 6.00 Build 0)  -->
<svg version="1.1" id="Слой_1" xmlns="http://www.w3.org/2000/svg" xmlns:xlink="http://www.w3.org/1999/xlink" x="0px" y="0px"
	 viewBox="0 0 32 32" style="enable-background:new 0 0 32 32;" xml:space="preserve">
<style type="text/css">
	.st0{fill: transparent;}
	.st1{fill:#FFFFFF;}
</style>
<circle class="st0" cx="16" cy="16" r="16"/>
<g>
	<path class="st1" d="M10.3,13.1c0-1.5,1.2-2.6,2.7-2.6c1.5,0,2.7,1.1,2.7,2.6c0,1.5-1.1,2.7-2.7,2.7C11.4,15.8,10.3,14.6,10.3,13.1
		z M18.9,10.6h1.4l-7.1,10.7h-1.4L18.9,10.6z M14.1,13.1c0-0.8-0.4-1.3-1-1.3s-1,0.5-1,1.3c0,0.9,0.4,1.3,1,1.3S14.1,13.9,14.1,13.1
		z M16.3,18.9c0-1.5,1.2-2.6,2.7-2.6c1.5,0,2.7,1.1,2.7,2.6c0,1.5-1.1,2.7-2.7,2.7C17.4,21.5,16.3,20.4,16.3,18.9z M20,18.8
		c0-0.8-0.4-1.3-1-1.3c-0.6,0-1,0.5-1,1.3c0,0.8,0.4,1.3,1,1.3C19.6,20.1,20,19.7,20,18.8z"/>
</g>
</svg>
