<svg viewBox="2 17 16 16" width="16px" height="16px" fill="none" xmlns="http://www.w3.org/2000/svg">
    <path fill-rule="evenodd" clip-rule="evenodd"
          d="M9 30H11V24H9V30ZM10 22C9.8 22 9.5 21.9 9.3 21.7C9.1 21.5 9 21.3 9 21C9 20.7 9.1 20.5 9.3 20.3C9.5 20.1 9.8 20 10 20C10.2 20 10.5 20.1 10.7 20.3C10.9 20.5 11 20.7 11 21C11 21.3 10.9 21.5 10.7 21.7C10.6 21.9 10.3 22 10 22ZM10 18C6.1 18 3 21.1 3 25C3 28.9 6.1 32 10 32C13.9 32 17 28.9 17 25C17 21.1 13.9 18 10 18ZM10 33C5.6 33 2 29.4 2 25C2 20.6 5.6 17 10 17C14.4 17 18 20.6 18 25C18 29.4 14.4 33 10 33Z"
          fill="#731982"/>
</svg>
