<svg xmlns="http://www.w3.org/2000/svg" width="28" height="26.256" viewBox="0 0 28 26.256"><path d="M16.769,4A13.09,13.09,0,0,0,4.617,22.051L2,27.154l2.773,3.1,5.743-1.641A13.128,13.128,0,1,0,16.769,4Zm0,24.615a11.487,11.487,0,0,1-5.743-1.559l-.3-.172L5.348,28.4,3.936,26.916l2.461-4.8-.156-.345a11.487,11.487,0,1,1,10.527,6.843ZM13.487,17.128a1.641,1.641,0,1,1-1.641-1.641A1.641,1.641,0,0,1,13.487,17.128Zm4.923,0a1.641,1.641,0,1,1-1.641-1.641A1.641,1.641,0,0,1,18.41,17.128Zm4.923,0a1.641,1.641,0,1,1-1.641-1.641A1.641,1.641,0,0,1,23.333,17.128Z" transform="translate(-2 -4)"/></svg>