<svg width="62" height="63" viewBox="0 0 62 63" fill="none" xmlns="http://www.w3.org/2000/svg">
<path d="M0 8.5C0 4.08172 3.58172 0.5 8 0.5H54C58.4183 0.5 62 4.08172 62 8.5V54.5C62 58.9183 58.4183 62.5 54 62.5H8C3.58172 62.5 0 58.9183 0 54.5V8.5Z" fill="#333333"/>
<path d="M38.4216 36.5516C38.4216 36.5516 38.3751 36.4164 38.2852 36.0969C38.1922 35.7789 37.8713 35.6867 37.6884 35.5961C37.5055 35.5055 37.4141 35.2321 37.552 35.1415C37.8713 34.9141 38.2387 34.7313 38.606 34.5946C39.4756 34.1844 38.3301 34.0032 37.7799 33.6391C37.5004 33.4674 37.2775 33.2138 37.1397 32.911C37.1397 32.8649 37.0932 32.8649 37.0932 32.8188L32.9702 21.166H29.0301L24.9071 32.7282L24.8606 32.8188C24.8606 32.8188 24.5863 33.4563 24.9071 33.7298C25.228 34.0032 25.7782 34.2305 24.8606 34.6407C23.9461 35.0492 23.6702 35.186 23.5323 35.2766C23.3959 35.3688 23.3029 35.5961 23.5788 35.6422C23.8531 35.6867 23.8082 35.9602 23.7152 36.2336L23.5323 36.6438L21.7002 41.785H25.6403L27.4724 36.5961L27.6553 36.1859C27.7483 35.9141 27.7483 35.6406 27.5189 35.5945C27.2895 35.5484 27.3344 35.3211 27.4724 35.2305C27.6103 35.1399 27.9761 35.0031 28.8472 34.5946C29.7168 34.1828 29.1681 33.8649 28.8937 33.6821C28.6178 33.5008 28.8472 32.7727 28.8472 32.7727L31.0002 26.6745L33.2911 33.1384H29.9462C29.8997 33.3196 29.9462 33.5485 30.1291 33.6837C30.405 33.9126 31.0002 34.1844 30.0826 34.5946C29.1681 35.0047 28.8472 35.1415 28.7093 35.2321C28.5713 35.3227 28.4799 35.55 28.7558 35.5977C29.0301 35.6422 28.9852 35.9157 28.8922 36.1875C28.8007 36.4609 28.6643 36.825 28.6643 36.825V36.8711H34.6194L36.3601 41.8327H40.3002L38.4681 36.6438L38.4216 36.5516Z" fill="white"/>
</svg>
