<svg width="62" height="63" viewBox="0 0 62 63" fill="none" xmlns="http://www.w3.org/2000/svg">
<path d="M0 8.5C0 4.08172 3.58172 0.5 8 0.5H54C58.4183 0.5 62 4.08172 62 8.5V54.5C62 58.9183 58.4183 62.5 54 62.5H8C3.58172 62.5 0 58.9183 0 54.5V8.5Z" fill="#333333"/>
<path fill-rule="evenodd" clip-rule="evenodd" d="M7.46712 25.3703C9.45213 25.0746 11.4371 25.9616 12.6281 27.6371C14.3154 25.1732 17.5906 24.5818 19.9726 26.2573C21.4614 27.2429 22.3546 28.9184 22.3546 30.791C22.3546 32.9593 22.3546 35.2261 22.3546 37.3944C21.7591 37.3944 21.1636 37.3944 20.5681 37.3944C20.5681 35.4232 20.5681 33.5506 20.5681 31.678C20.5681 30.9881 20.5681 30.3968 20.4689 29.8054C19.9726 27.9328 17.9876 26.9472 16.1019 27.44C14.6131 27.8342 13.5214 29.2141 13.6206 30.791C13.6206 33.0579 13.6206 35.2262 13.6206 37.493C13.0251 37.493 12.4296 37.493 11.8341 37.493C11.8341 35.6204 11.8341 33.6492 11.8341 31.7766C11.8341 31.1853 11.8341 30.5939 11.7349 30.0025C11.3379 28.1299 9.4521 26.9472 7.56635 27.44C6.57385 27.6371 5.77986 28.327 5.28361 29.1155C4.98586 29.6083 4.88659 30.1997 4.88659 30.791C4.88659 33.0579 4.88659 35.2262 4.88659 37.493C4.29109 37.493 3.6956 37.493 3.1001 37.493V31.2838C3.1001 30.9881 3.1001 30.5939 3.1001 30.2982C3.1001 27.6371 4.98587 25.666 7.46712 25.3703ZM30.3939 25.3703C33.8676 25.1732 36.7459 27.7357 37.0436 31.0867C37.2421 34.5362 34.6616 37.3945 31.2871 37.6901C27.8134 37.8872 24.9351 35.3247 24.6374 31.9737C24.4389 29.5097 25.8284 27.2429 28.0119 26.0602C28.7066 25.6659 29.5999 25.3703 30.3939 25.3703ZM40.6166 27.2429C41.6091 25.9616 43.1971 25.2717 44.7851 25.3703C44.7851 25.9616 44.7851 26.553 44.7851 27.1443C43.6934 27.1443 42.7009 27.6371 42.0061 28.4256C41.5099 29.0169 41.2121 29.8054 41.2121 30.6924C41.2121 32.9593 41.2121 35.1276 41.2121 37.3944H39.4257C39.4257 35.1276 39.4257 32.9593 39.4257 30.6924C39.4257 29.4112 39.8226 28.2285 40.6166 27.2429ZM47.2664 28.4256C48.9536 25.4688 52.8244 24.3847 55.8019 26.1588C57.8862 27.3415 59.0771 29.5097 58.8786 31.8751C57.2906 31.8751 55.6034 31.8751 54.0154 31.8751C52.1296 31.8751 50.2439 31.8751 48.2589 31.8751C48.4574 34.2406 50.6409 36.0146 53.0229 35.8175C53.6184 35.8175 54.1147 35.6204 54.6109 35.3247C55.5042 34.9305 56.0997 34.2406 56.5959 33.3535C57.0922 33.6492 57.6876 33.9449 58.1839 34.2406C56.4966 37.1973 52.7251 38.38 49.7476 36.7045C46.7701 35.029 45.5791 31.4809 47.2664 28.4256ZM49.9461 28.0313C49.2514 28.6227 48.6559 29.3126 48.4574 30.1996C51.2364 30.1996 54.0154 30.1996 56.7944 30.1996C56.4967 29.3126 55.9011 28.5241 55.1072 27.9328C53.6184 26.8487 51.5341 26.8486 49.9461 28.0313Z" fill="white"/>
</svg>
