<svg width="62" height="63" viewBox="0 0 62 63" fill="none" xmlns="http://www.w3.org/2000/svg">
<path d="M0 8.5C0 4.08172 3.58172 0.5 8 0.5H54C58.4183 0.5 62 4.08172 62 8.5V54.5C62 58.9183 58.4183 62.5 54 62.5H8C3.58172 62.5 0 58.9183 0 54.5V8.5Z" fill="#1D1F23"/>
<path d="M13.2499 21.166C10.5567 21.166 9.2998 22.6572 9.2998 24.9821V27.6798C9.2998 30.0929 9.74178 31.1232 11.5235 32.2145L12.8977 33.0482C14.0096 33.7057 14.1546 34.1937 14.1546 35.6035V37.9827C14.1546 38.674 13.83 39.1011 13.2154 39.1011C12.6008 39.1011 12.2762 38.7012 12.2762 37.9827V34.2479H9.2998V38.0098C9.2998 40.3618 10.529 41.8259 13.1878 41.8259C15.9363 41.8259 17.1932 40.2737 17.1932 38.0098V35.0816C17.1932 32.8448 16.6062 31.6925 14.9142 30.6351L13.54 29.7743C12.5732 29.171 12.3384 28.744 12.3384 27.1918V25.0092C12.3384 24.3179 12.6629 23.8908 13.243 23.8908C13.8577 23.8908 14.2098 24.3246 14.2098 25.0092V28.7101H17.1932V24.9821C17.1932 22.6843 15.9363 21.166 13.2499 21.166Z" fill="#E00A1E"/>
<path d="M18.1323 24.3251H20.2386V41.5485H23.2772V24.3251H25.3835V21.4512H18.1323V24.3251Z" fill="#E00A1E"/>
<path d="M45.2725 21.4512V24.3251H47.3787V41.5485H50.4173V24.3251H52.5235V21.4512H45.2725Z" fill="#E00A1E"/>
<path d="M27.255 21.4512L25.5562 41.5417H28.5671L28.9815 36.1734H31.1913L31.6057 41.5417H34.6788L32.9868 21.4512H27.255ZM29.1956 33.4485L29.9137 24.176H30.2728L30.9911 33.4485H29.1956Z" fill="#E00A1E"/>
<path d="M44.1603 40.0234V34.7974C44.1603 33.13 43.5181 32.2149 41.9643 31.8963V31.5507C43.5112 31.3202 44.3054 30.2018 44.3054 28.392V24.9826C44.3054 22.7729 42.9587 21.4512 40.3552 21.4512H36.2324V41.5417H39.271V33.1367H41.1149V40.0234C41.1149 41.1689 41.6121 41.5417 41.6121 41.5417H44.6507C44.6575 41.5485 44.1603 41.1757 44.1603 40.0234ZM41.2668 28.5411C41.2668 29.9781 40.9422 30.4051 39.9478 30.4051H39.2779V24.1828H40.0652C41.0044 24.1828 41.2668 24.5556 41.2668 26.0468V28.5411Z" fill="#E00A1E"/>
</svg>
