<svg width="62" height="63" viewBox="0 0 62 63" fill="none" xmlns="http://www.w3.org/2000/svg">
<path d="M0 8.5C0 4.08172 3.58172 0.5 8 0.5H54C58.4183 0.5 62 4.08172 62 8.5V54.5C62 58.9183 58.4183 62.5 54 62.5H8C3.58172 62.5 0 58.9183 0 54.5V8.5Z" fill="#00B956"/>
<g clip-path="url(#clip0_1032_33374)">
<path d="M48.1046 31.3644C48.1054 33.761 47.6165 36.1321 46.6682 38.3305C46.5581 38.5852 46.4371 38.8399 46.316 39.0891C43.394 45.0385 37.3699 48.8042 30.7744 48.8042C24.1789 48.8042 18.1547 45.0385 15.2328 39.0891C15.1117 38.8399 14.9906 38.5852 14.8805 38.3305C13.9285 36.1329 13.4358 33.7617 13.4331 31.3644C13.4276 28.6886 14.0399 26.048 15.2217 23.6509C15.3373 23.4072 15.4694 23.158 15.6015 22.9199C16.3878 21.4992 17.3657 20.1948 18.5073 19.0438C25.2749 12.2354 36.2463 12.2354 43.0139 19.0438C44.1572 20.1947 45.137 21.4991 45.9253 22.9199C46.0573 23.158 46.1839 23.4072 46.305 23.6509C47.488 26.048 48.1039 28.688 48.1046 31.3644Z" fill="#00B956"/>
<path d="M28.5012 39.7272C29.2341 39.9498 29.9978 40.0527 30.7631 40.0318C34.2823 40.0318 37.4549 37.8988 38.8017 34.6274C40.1484 31.356 39.404 27.5905 36.9155 25.0867C34.4271 22.5829 30.6847 21.8339 27.4334 23.189C24.1821 24.544 22.0622 27.7362 22.0622 31.2772C22.0424 32.5067 22.3021 33.7246 22.8217 34.8377L21.7705 35.325C21.1864 34.0575 20.893 32.6741 20.912 31.2772C20.912 25.803 25.3225 21.3652 30.7631 21.3652C36.2037 21.3652 40.6142 25.803 40.6142 31.2772C40.6142 36.7514 36.2037 41.1891 30.7631 41.1891C29.8727 41.2198 28.9835 41.1 28.1325 40.8347L28.5012 39.7272Z" fill="white"/>
<path d="M35.6062 31.3704L27.7583 27.3281V35.4127L35.6062 31.3704Z" fill="white"/>
<path d="M23.1026 37.629C23.7105 37.629 24.2033 37.1332 24.2033 36.5215C24.2033 35.9099 23.7105 35.4141 23.1026 35.4141C22.4947 35.4141 22.002 35.9099 22.002 36.5215C22.002 37.1332 22.4947 37.629 23.1026 37.629Z" fill="#731982"/>
<path d="M24.6437 39.588C25.2515 39.588 25.7443 39.0922 25.7443 38.4805C25.7443 37.8689 25.2515 37.373 24.6437 37.373C24.0358 37.373 23.543 37.8689 23.543 38.4805C23.543 39.0922 24.0358 39.588 24.6437 39.588Z" fill="#731982"/>
<path d="M26.8561 40.7189C27.4639 40.7189 27.9567 40.223 27.9567 39.6114C27.9567 38.9997 27.4639 38.5039 26.8561 38.5039C26.2482 38.5039 25.7554 38.9997 25.7554 39.6114C25.7554 40.223 26.2482 40.7189 26.8561 40.7189Z" fill="#00B956"/>
</g>
<defs>
<clipPath id="clip0_1032_33374">
<rect width="35.1333" height="35.1333" fill="white" transform="translate(13.4331 13.9336)"/>
</clipPath>
</defs>
</svg>
