<?xml version="1.0" encoding="utf-8"?>
<!-- Generator: Adobe Illustrator 25.3.1, SVG Export Plug-In . SVG Version: 6.00 Build 0)  -->
<svg version="1.1" id="Слой_1" xmlns="http://www.w3.org/2000/svg" xmlns:xlink="http://www.w3.org/1999/xlink" x="0px" y="0px"
	 viewBox="0 0 19.1 30" style="enable-background:new 0 0 19.1 30;" xml:space="preserve">
<g>
	<rect x="5.4" y="4.6" width="8.3" height="2.8"/>
	<path d="M9.6,20.8c-1.3,0-2.3,1-2.3,2.3s1,2.3,2.3,2.3s2.3-1,2.3-2.3S10.8,20.8,9.6,20.8z"/>
	<path d="M15,0H4.1C1.9,0,0,1.9,0,4.1v21.8C0,28.1,1.9,30,4.1,30H15c2.3,0,4.1-1.9,4.1-4.1V4.1C19.1,1.9,17.3,0,15,0z M4.1,2.8H15
		c0.7,0,1.3,0.6,1.3,1.3v21.8c0,0.7-0.6,1.3-1.3,1.3H4.1c-0.7,0-1.3-0.6-1.3-1.3V4.1C2.8,3.4,3.4,2.8,4.1,2.8z"/>
</g>
</svg>
