<svg width="40" height="41" viewBox="0 0 40 41" fill="none" xmlns="http://www.w3.org/2000/svg">
<g clip-path="url(#clip0_1246_29931)">
<path d="M40 20.5C40 31.5456 31.0456 40.5 20 40.5C8.95556 40.5 0 31.5456 0 20.5C0 9.45556 8.95556 0.5 20 0.5C31.0456 0.5 40 9.45556 40 20.5Z" fill="#FFD939"/>
<path d="M19.2355 20.0696C19.04 19.9107 18.7611 19.9062 18.5578 20.054C18.5444 20.064 17.1578 21.0562 14.4444 21.0562C11.7322 21.0562 10.3444 20.064 10.3333 20.0562C10.13 19.904 9.84999 19.9085 9.65443 20.0662C9.45665 20.224 9.38999 20.4951 9.49221 20.7262C9.55888 20.8762 11.1589 24.3896 14.4444 24.3896C17.7311 24.3896 19.33 20.8762 19.3967 20.7262C19.4989 20.4962 19.4322 20.2273 19.2355 20.0696ZM30.3467 20.0696C30.1511 19.9107 29.8733 19.9051 29.6689 20.054C29.6555 20.064 28.2678 21.0562 25.5555 21.0562C22.8444 21.0562 21.4555 20.064 21.4444 20.0562C21.2411 19.904 20.9622 19.9085 20.7655 20.0662C20.5678 20.224 20.5011 20.4951 20.6033 20.7262C20.67 20.8762 22.27 24.3896 25.5555 24.3896C28.8422 24.3896 30.4411 20.8762 30.5078 20.7262C30.61 20.4962 30.5433 20.2273 30.3467 20.0696ZM24.4444 31.6118H15.5555C14.9422 31.6118 14.4444 31.1151 14.4444 30.5007C14.4444 29.8862 14.9422 29.3896 15.5555 29.3896H24.4444C25.0589 29.3896 25.5555 29.8862 25.5555 30.5007C25.5555 31.1151 25.0589 31.6118 24.4444 31.6118ZM6.66665 16.0562C6.05332 16.0562 5.55554 15.5585 5.55554 14.9451C5.55554 14.3329 6.04999 13.8362 6.66221 13.834C6.83554 13.8318 10.6278 13.7385 13.5567 9.83402C13.9244 9.34513 14.62 9.2429 15.1122 9.61179C15.6033 9.97957 15.7022 10.6762 15.3344 11.1673C11.7089 16.0007 6.8711 16.0562 6.66665 16.0562ZM33.3333 16.0562C33.1289 16.0562 28.2922 16.0007 24.6667 11.1673C24.2978 10.6762 24.3978 9.97957 24.8889 9.61179C25.3789 9.24179 26.0744 9.3429 26.4433 9.83402C29.3778 13.7462 33.1778 13.8329 33.3389 13.834C33.95 13.8407 34.4433 14.3407 34.44 14.9507C34.4378 15.5629 33.9444 16.0562 33.3333 16.0562Z" fill="#8C5106"/>
</g>
<defs>
<clipPath id="clip0_1246_29931">
<rect width="40" height="40" fill="white" transform="translate(0 0.5)"/>
</clipPath>
</defs>
</svg>
