<svg xmlns="http://www.w3.org/2000/svg" width="133" height="42.317" viewBox="0 0 133 42.317">
    <defs>
        <style>.a{fill:#999;fill-rule:evenodd;}</style>
    </defs>
    <path class="a" d="M75.081,32.481,70.6,28v.791l3.69,3.69" transform="translate(17.27 6.849)"/>
    <path class="a" d="M74.085,32.285,70.6,28.8v.831l2.653,2.654" transform="translate(17.27 7.045)"/>
    <path class="a" d="M72.689,32.089,70.2,29.6v.891l1.6,1.6" transform="translate(17.172 7.241)"/>
    <path class="a" d="M74.387,26.79V26L71.4,29.09l.382.395" transform="translate(17.466 6.36)"/>
    <path class="a" d="M75.978,24,71,29.059l.41.418,4.568-4.642" transform="translate(17.368 5.871)"/>
    <path class="a" d="M75.081,24,70.6,28.552l.419.426,4.061-4.127" transform="translate(17.27 5.871)"/>
    <path class="a"
          d="M64.177,29.629a2.344,2.344,0,1,0-2.334,2.461,2.325,2.325,0,0,0,2.334-2.461m-5.577.017a3.236,3.236,0,1,1,3.246,3.226A3.147,3.147,0,0,1,58.6,29.646m12.547-.017a2.344,2.344,0,1,0-2.334,2.461,2.325,2.325,0,0,0,2.334-2.461m-5.577.017a3.236,3.236,0,1,1,3.246,3.226,3.148,3.148,0,0,1-3.246-3.226"
          transform="translate(14.335 6.458)"/>
    <path class="a" d="M74.2,26.8h.853v5.214h3.13v.76H74.2" transform="translate(18.151 6.556)"/>
    <path class="a" d="M80.8,27.846h-.017l-2.05,4.927H77.8L80.368,26.8h.9l2.51,5.974h-.93"
          transform="translate(19.031 6.556)"/>
    <path class="a" d="M69.4,32.774h.994l0-5.974H69.4" transform="translate(16.977 6.556)"/>
    <path class="a"
          d="M89.831,32.124a.523.523,0,0,1,.244.062.461.461,0,0,1,.187.184.5.5,0,1,1-.86,0,.463.463,0,0,1,.184-.184A.518.518,0,0,1,89.831,32.124Zm0,.082a.416.416,0,1,0,.209.775.416.416,0,0,0-.21-.775Zm-.217.692v-.535H89.8a.473.473,0,0,1,.137.012l.067.052.025.078-.041.1-.111.05.045.029a.627.627,0,0,1,.08.106l.066.1h-.106l-.047-.085a.443.443,0,0,0-.091-.124l-.07-.019H89.7V32.9h-.087Zm.087-.3h.1a.169.169,0,0,0,.1-.022l.027-.06-.014-.042-.037-.029-.087-.009h-.1V32.6ZM53.957,36.8v-.012a1.247,1.247,0,0,0-1.215-1.344,1.291,1.291,0,0,0-1.248,1.337v.012a1.288,1.288,0,0,0,1.248,1.344A1.221,1.221,0,0,0,53.957,36.8m-2.443,1.062v.666H51V33.618h.514v2.13a1.551,1.551,0,0,1,1.322-.772,1.689,1.689,0,0,1,1.649,1.8v.012A1.7,1.7,0,0,1,52.836,38.6a1.553,1.553,0,0,1-1.322-.739m6.4-2.746h.549L57.016,38.63c-.295.706-.629.962-1.15.962a1.592,1.592,0,0,1-.737-.172l.174-.4a1.1,1.1,0,0,0,.541.124c.309,0,.5-.158.709-.64l-1.572-3.393h.569l1.257,2.84M51,10.063l.856-1.023A3.741,3.741,0,0,0,54.414,10.1c.88,0,1.435-.418,1.435-1.023V9.053c0-.581-.324-.895-1.828-1.243-1.725-.418-2.7-.93-2.7-2.427V5.359A2.482,2.482,0,0,1,54.09,3a4.485,4.485,0,0,1,2.94,1.022L56.266,5.1a3.678,3.678,0,0,0-2.2-.836c-.834,0-1.319.431-1.319.965v.024c0,.627.371.906,1.933,1.278,1.713.417,2.593,1.033,2.593,2.381v.022c0,1.522-1.192,2.428-2.894,2.428A4.978,4.978,0,0,1,51,10.063M61.919,7.35a1.544,1.544,0,0,0,1.749-1.494V5.832c0-.98-.685-1.494-1.749-1.494H60.264V7.35ZM58.841,3h3.194a2.755,2.755,0,0,1,3.079,2.8V5.82c0,1.876-1.459,2.855-3.241,2.855H60.265v2.688H58.841Z"
          transform="translate(12.476 0.734)"/>
    <path class="a" d="M63.6,3h6.213V4.315h-4.74V6.489h4.2V7.815h-4.2V10.05h4.8v1.314H63.6"
          transform="translate(15.558 0.734)"/>
    <path class="a" d="M69.9,3h6.213V4.315h-4.74V6.489h4.2V7.815h-4.2V10.05h4.8v1.314H69.9"
          transform="translate(17.099 0.734)"/>
    <path class="a"
          d="M77.623,4.338v5.688h1.6a2.681,2.681,0,0,0,2.809-2.82V7.182a2.7,2.7,0,0,0-2.809-2.844ZM76.2,3h3.018a4.1,4.1,0,0,1,4.3,4.157v.025a4.114,4.114,0,0,1-4.3,4.182H76.2Z"
          transform="translate(18.64 0.734)"/>
    <path class="a" d="M85.163,4.362H82.5V3h6.8V4.362H86.633v7H85.163" transform="translate(20.181 0.734)"/>
    <path class="a" d="M89.22,3h6.213V4.315h-4.74V6.489h4.2V7.815h-4.2V10.05h4.8v1.314H89.22"
          transform="translate(21.825 0.734)"/>
    <path class="a"
          d="M95.52,10.063l.856-1.023A3.741,3.741,0,0,0,98.934,10.1c.88,0,1.436-.418,1.436-1.023V9.053c0-.581-.325-.895-1.83-1.243-1.725-.418-2.7-.93-2.7-2.427V5.359A2.482,2.482,0,0,1,98.61,3a4.485,4.485,0,0,1,2.94,1.022l-.764,1.08a3.678,3.678,0,0,0-2.2-.836c-.834,0-1.319.431-1.319.965v.024c0,.627.371.906,1.933,1.278,1.713.417,2.593,1.033,2.593,2.381v.022c0,1.522-1.192,2.428-2.892,2.428a4.98,4.98,0,0,1-3.38-1.3"
          transform="translate(23.366 0.734)"/>
    <path class="a" d="M104.063,4.362H101.4V3h6.8V4.362h-2.663v7h-1.469" transform="translate(24.804 0.734)"/>
    <path class="a"
          d="M56.545,18.066,55.16,14.744l-1.375,3.323h2.761ZM54.528,13h1.307l3.528,8.364h-1.49l-.813-2.005H53.269l-.825,2.005H51Z"
          transform="translate(12.476 3.18)"/>
    <path class="a"
          d="M57.72,13.024h1.6l2.007,6.14L63.392,13h1.25l2.067,6.164,2.007-6.14h1.55l-2.92,8.34H66.06l-2.067-5.95-2.067,5.95H60.652"
          transform="translate(14.119 3.18)"/>
    <path class="a"
          d="M89.407,21.246l-1.386-3.322-1.374,3.323h2.761ZM87.391,16.18H88.7l3.528,8.364h-1.49l-.813-2.005H86.131l-.825,2.005H83.862Zm9.864,4.146c1.006,0,1.645-.549,1.645-1.4V18.9c0-.9-.617-1.385-1.655-1.385H95.2v2.808Zm-3.46-4.146h3.563a3.142,3.142,0,0,1,2.308.836,2.591,2.591,0,0,1,.662,1.8v.024a2.49,2.49,0,0,1-1.9,2.533l2.158,3.166H98.922l-1.964-2.916H95.2v2.916H93.795Zm9.786,1.338v5.688h1.594a2.681,2.681,0,0,0,2.81-2.82v-.024a2.7,2.7,0,0,0-2.81-2.844Zm-1.423-1.338h3.017a4.1,4.1,0,0,1,4.3,4.157v.025a4.114,4.114,0,0,1-4.3,4.182h-3.017Zm8.887,7.063.856-1.023a3.741,3.741,0,0,0,2.558,1.058c.88,0,1.435-.418,1.435-1.023v-.022c0-.581-.324-.895-1.83-1.245-1.724-.417-2.7-.928-2.7-2.427v-.022a2.482,2.482,0,0,1,2.767-2.359,4.484,4.484,0,0,1,2.939,1.022l-.763,1.08a3.676,3.676,0,0,0-2.2-.835c-.834,0-1.319.429-1.319.963v.024c0,.627.371.906,1.933,1.277,1.713.418,2.593,1.034,2.593,2.382v.022c0,1.522-1.192,2.428-2.894,2.428a4.979,4.979,0,0,1-3.379-1.3m8.217-6.018-.027-.307,0-.146h-.009c-.019.046-.041.107-.062.156l-.134.29h-.152l-.133-.3q-.025-.074-.052-.147h-.007c0,.047,0,.1,0,.146l-.029.307h-.141l.054-.523h.22l.129.255.049.133h0l.052-.131.127-.258h.212l.058.523h-.147Zm-.8-.523v.087h-.236v.436h-.148V16.79h-.236V16.7h.621ZM42.809,42.317a24.573,24.573,0,0,0,7.345-17.528A24.934,24.934,0,0,0,25.077,0,24.934,24.934,0,0,0,0,24.789,24.564,24.564,0,0,0,7.346,42.317l3.572-3.532a19.6,19.6,0,0,1-5.877-14A19.91,19.91,0,0,1,25.077,5.007,19.911,19.911,0,0,1,45.112,24.789a19.593,19.593,0,0,1-5.868,13.987"/>
    <path class="a" d="M20.907,28.574,16.37,24.037l14.518-12.7,2.722,2.722" transform="translate(4.005 2.772)"/>
</svg>