<svg width="33" height="33" viewBox="0 0 33 33" fill="none" xmlns="http://www.w3.org/2000/svg">
    <path
            d="M6.57365 23.5H15.4937V26.5H11.4937V28.5H21.4937V26.5H17.4937V23.5H26.4137C27.2288 23.5 28.0107 23.1769 28.588 22.6014C29.1653 22.026 29.491 21.2451 29.4937 20.43V7.57C29.491 6.75487 29.1653 5.97402 28.588 5.39857C28.0107 4.82312 27.2288 4.5 26.4137 4.5H6.57365C5.75852 4.5 4.97662 4.82312 4.39929 5.39857C3.82197 5.97402 3.4963 6.75487 3.49365 7.57V20.43C3.4963 21.2451 3.82197 22.026 4.39929 22.6014C4.97662 23.1769 5.75852 23.5 6.57365 23.5ZM5.49365 7.57C5.49629 7.2853 5.61124 7.01316 5.81349 6.81278C6.01575 6.6124 6.28894 6.49999 6.57365 6.5H26.4137C26.6984 6.49999 26.9716 6.6124 27.1738 6.81278C27.3761 7.01316 27.491 7.2853 27.4937 7.57V20.43C27.491 20.7147 27.3761 20.9868 27.1738 21.1872C26.9716 21.3876 26.6984 21.5 26.4137 21.5H6.57365C6.28894 21.5 6.01575 21.3876 5.81349 21.1872C5.61124 20.9868 5.49629 20.7147 5.49365 20.43V7.57Z"
            fill="#333333"/>
    <path
            d="M11.4536 15.5C12.2821 15.5 12.9536 14.8284 12.9536 14C12.9536 13.1716 12.2821 12.5 11.4536 12.5C10.6252 12.5 9.95364 13.1716 9.95364 14C9.95364 14.8284 10.6252 15.5 11.4536 15.5Z"
            fill="#333333"/>
    <path
            d="M16.4536 15.5C17.2821 15.5 17.9536 14.8284 17.9536 14C17.9536 13.1716 17.2821 12.5 16.4536 12.5C15.6252 12.5 14.9536 13.1716 14.9536 14C14.9536 14.8284 15.6252 15.5 16.4536 15.5Z"
            fill="#333333"/>
    <path
            d="M21.4536 15.5C22.2821 15.5 22.9536 14.8284 22.9536 14C22.9536 13.1716 22.2821 12.5 21.4536 12.5C20.6252 12.5 19.9536 13.1716 19.9536 14C19.9536 14.8284 20.6252 15.5 21.4536 15.5Z"
            fill="#333333"/>
</svg>