<svg width="33" height="33" viewBox="0 0 33 33" fill="none" xmlns="http://www.w3.org/2000/svg">
    <path
            d="M18.9937 25.5H7.59365C6.15771 25.5 4.99365 24.3359 4.99365 22.9V15.1C4.99365 13.664 6.15771 12.5 7.59365 12.5H21.4884V12.5021C21.5233 12.5007 21.5584 12.5 21.5937 12.5H26.3937C27.8296 12.5 28.9937 13.664 28.9937 15.1V25.9C28.9937 27.3359 27.8296 28.5 26.3937 28.5H21.5937C20.1577 28.5 18.9937 27.3359 18.9937 25.9V25.5ZM19.0632 14.5H7.59365C7.26228 14.5 6.99365 14.7686 6.99365 15.1V22.9C6.99365 23.2314 7.26228 23.5 7.59365 23.5H18.9937V15.1C18.9937 14.8935 19.0177 14.6926 19.0632 14.5ZM26.9937 25.9V15.1C26.9937 14.7686 26.725 14.5 26.3937 14.5H21.5937C21.2623 14.5 20.9937 14.7686 20.9937 15.1V25.9C20.9937 26.2314 21.2623 26.5 21.5937 26.5H26.3937C26.725 26.5 26.9937 26.2314 26.9937 25.9ZM23.9937 26.1C23.5518 26.1 23.1937 25.7418 23.1937 25.3C23.1937 24.8582 23.5518 24.5 23.9937 24.5C24.4355 24.5 24.7937 24.8582 24.7937 25.3C24.7937 25.7418 24.4355 26.1 23.9937 26.1ZM11.9937 28.5V26.5H17.9937V28.5H11.9937ZM15.4197 11.3C14.9779 11.3 14.6197 10.9418 14.6197 10.5C14.6197 10.0582 14.9779 9.69999 15.4197 9.69999C15.8615 9.69999 16.2197 10.0582 16.2197 10.5C16.2197 10.9418 15.8615 11.3 15.4197 11.3ZM18.4079 7.93406L16.9937 9.34827C16.1345 8.48912 14.7415 8.48912 13.8824 9.34827L12.4682 7.93406C14.1084 6.29386 16.7677 6.29386 18.4079 7.93406ZM20.6706 5.67132L19.2564 7.08553C17.1476 4.9767 13.7285 4.9767 11.6196 7.08553L10.2054 5.67132C13.0953 2.78144 17.7807 2.78144 20.6706 5.67132Z"
            fill="black"/>
</svg>