<svg width="33" height="33" viewBox="0 0 33 33" fill="none" xmlns="http://www.w3.org/2000/svg">
    <path
            d="M16.9937 4.5C14.6203 4.5 12.3002 5.20379 10.3268 6.52236C8.35343 7.84094 6.81535 9.71509 5.9071 11.9078C4.99885 14.1005 4.76121 16.5133 5.22423 18.8411C5.68726 21.1689 6.83015 23.3071 8.50838 24.9853C10.1866 26.6635 12.3248 27.8064 14.6526 28.2694C16.9803 28.7324 19.3931 28.4948 21.5859 27.5866C23.7786 26.6783 25.6527 25.1402 26.9713 23.1668C28.2899 21.1935 28.9937 18.8734 28.9937 16.5C28.9937 13.3174 27.7294 10.2652 25.4789 8.01472C23.2285 5.76428 20.1763 4.5 16.9937 4.5ZM13.9937 26.04C11.7141 25.3236 9.76634 23.8146 8.50318 21.7863C7.24002 19.7579 6.74492 17.3443 7.10754 14.9825C7.47016 12.6206 8.66651 10.4667 10.48 8.91072C12.2935 7.35473 14.6041 6.49954 16.9937 6.5V15.5H13.9937V26.04ZM16.9937 26.5C16.6537 26.5 16.3237 26.5 15.9937 26.45V17.5H18.9937V6.7C21.424 7.19349 23.5842 8.5724 25.055 10.5691C26.5259 12.5657 27.2023 15.0376 26.9531 17.505C26.7039 19.9723 25.5467 22.2591 23.7063 23.9213C21.8659 25.5834 19.4736 26.5025 16.9937 26.5Z"
            fill="#333333"/>
    <path
            d="M17.9937 21.5C18.5459 21.5 18.9937 21.0523 18.9937 20.5C18.9937 19.9477 18.5459 19.5 17.9937 19.5C17.4414 19.5 16.9937 19.9477 16.9937 20.5C16.9937 21.0523 17.4414 21.5 17.9937 21.5Z"
            fill="#333333"/>
    <path
            d="M20.9937 21.5C21.5459 21.5 21.9937 21.0523 21.9937 20.5C21.9937 19.9477 21.5459 19.5 20.9937 19.5C20.4414 19.5 19.9937 19.9477 19.9937 20.5C19.9937 21.0523 20.4414 21.5 20.9937 21.5Z"
            fill="#333333"/>
    <path
            d="M23.9937 21.5C24.5459 21.5 24.9937 21.0523 24.9937 20.5C24.9937 19.9477 24.5459 19.5 23.9937 19.5C23.4414 19.5 22.9937 19.9477 22.9937 20.5C22.9937 21.0523 23.4414 21.5 23.9937 21.5Z"
            fill="#333333"/>
    <path
            d="M12.9937 12.5C13.5459 12.5 13.9937 12.0523 13.9937 11.5C13.9937 10.9477 13.5459 10.5 12.9937 10.5C12.4414 10.5 11.9937 10.9477 11.9937 11.5C11.9937 12.0523 12.4414 12.5 12.9937 12.5Z"
            fill="#333333"/>
</svg>