<svg width="32" height="32" viewBox="0 0 32 32" fill="none" xmlns="http://www.w3.org/2000/svg">
<path d="M28 16C28 13.6266 27.2962 11.3066 25.9776 9.33316C24.6591 7.35977 22.7849 5.8217 20.5922 4.91345C18.3995 4.0052 15.9867 3.76756 13.6589 4.23058C11.3312 4.6936 9.19295 5.83649 7.51472 7.51472C5.83649 9.19295 4.6936 11.3312 4.23058 13.6589C3.76756 15.9867 4.0052 18.3995 4.91345 20.5922C5.8217 22.7849 7.35977 24.6591 9.33316 25.9776C11.3066 27.2962 13.6266 28 16 28H28V26H22.62C24.2727 24.9069 25.6289 23.4216 26.5677 21.6766C27.5065 19.9317 27.9986 17.9815 28 16ZM16 26C14.0222 26 12.0888 25.4135 10.4443 24.3147C8.79981 23.2159 7.51809 21.6541 6.76121 19.8268C6.00433 17.9996 5.8063 15.9889 6.19215 14.0491C6.578 12.1093 7.53041 10.3275 8.92894 8.92894C10.3275 7.53041 12.1093 6.578 14.0491 6.19215C15.9889 5.8063 17.9996 6.00433 19.8268 6.76121C21.6541 7.51809 23.2159 8.79981 24.3147 10.4443C25.4135 12.0888 26 14.0222 26 16C26 18.6522 24.9464 21.1957 23.0711 23.0711C21.1957 24.9464 18.6522 26 16 26Z" fill="#00B956"/>
<path d="M10 17.5C10.8284 17.5 11.5 16.8284 11.5 16C11.5 15.1716 10.8284 14.5 10 14.5C9.17157 14.5 8.5 15.1716 8.5 16C8.5 16.8284 9.17157 17.5 10 17.5Z" fill="#00B956"/>
<path d="M16 11.5C16.8284 11.5 17.5 10.8284 17.5 10C17.5 9.17157 16.8284 8.5 16 8.5C15.1716 8.5 14.5 9.17157 14.5 10C14.5 10.8284 15.1716 11.5 16 11.5Z" fill="#00B956"/>
<path d="M16 23.5C16.8284 23.5 17.5 22.8284 17.5 22C17.5 21.1716 16.8284 20.5 16 20.5C15.1716 20.5 14.5 21.1716 14.5 22C14.5 22.8284 15.1716 23.5 16 23.5Z" fill="#00B956"/>
<path d="M22 17.5C22.8284 17.5 23.5 16.8284 23.5 16C23.5 15.1716 22.8284 14.5 22 14.5C21.1716 14.5 20.5 15.1716 20.5 16C20.5 16.8284 21.1716 17.5 22 17.5Z" fill="#00B956"/>
</svg>
