<svg width="18" height="24" viewBox="0 0 18 24" fill="none" xmlns="http://www.w3.org/2000/svg">
<path d="M10.85 11L9.85 10.74L10.85 12V11ZM17 11H18V10H17V11ZM4.5 23L3.5 22.74L3.2 24H4.5V23ZM7.15 13L8.15 13.26L7.15 12V13ZM1 13H0V14H1V13ZM12 1V0H11.6L11.31 0.28L12 1ZM13.5 1L14.5 1.26L14.8 0H13.5V1ZM6 23V24H6.4L6.69 23.72L6 23ZM1 11.5L0.31 10.78L0 11.07V11.5H1ZM17 12.5L17.69 13.22L18 12.93V12.5H17ZM10.85 12H17V10H10.85V12ZM5.47 23.26L8.11 13.26L6.18 12.74L3.53 22.74L5.47 23.26ZM7.15 12H1V14H7.15V12ZM12 2H13.5V0H12V2ZM12.53 0.74L9.89 10.74L11.82 11.26L14.47 1.26L12.53 0.74ZM6 22H4.5V24H6V22ZM2 13V11.5H0V13H2ZM1.69 12.22L12.69 1.72L11.31 0.28L0.31 10.78L1.69 12.22ZM16 11V12.5H18V11H16ZM16.31 11.78L5.31 22.28L6.69 23.72L17.69 13.22L16.31 11.78Z" fill="#00B956"/>
</svg>
