<svg width="24" height="24" viewBox="0 0 24 24" fill="none" xmlns="http://www.w3.org/2000/svg">
<path d="M12 0C9.62663 0 7.30655 0.703788 5.33316 2.02236C3.35977 3.34094 1.8217 5.21509 0.913451 7.4078C0.00519943 9.60051 -0.232441 12.0133 0.230582 14.3411C0.693605 16.6689 1.83649 18.8071 3.51472 20.4853C5.19295 22.1635 7.33115 23.3064 9.65892 23.7694C11.9867 24.2324 14.3995 23.9948 16.5922 23.0866C18.7849 22.1783 20.6591 20.6402 21.9776 18.6668C23.2962 16.6935 24 14.3734 24 12C24 8.8174 22.7357 5.76515 20.4853 3.51472C18.2348 1.26428 15.1826 0 12 0ZM2.00001 12C2.00691 9.55847 2.9068 7.20382 4.53001 5.38L5.53001 5.9C6.53001 6.4 7.43001 7.72 7.08001 8.56L5.08001 12.62C4.8871 13.014 4.59272 13.3495 4.22716 13.5921C3.86159 13.8346 3.43802 13.9754 3.00001 14H2.20001C2.06634 13.3417 1.99933 12.6717 2.00001 12ZM15 21.53C12.6479 22.2694 10.1056 22.1139 7.8612 21.0932C5.61682 20.0725 3.82862 18.2587 2.84001 16H3.00001C3.82052 15.9751 4.61816 15.7237 5.30469 15.2737C5.99122 14.8237 6.53989 14.1925 6.89001 13.45L8.89001 9.39C9.73001 7.39 8.28001 5.05 6.42001 4.11L6.08001 3.94C8.01923 2.51814 10.4059 1.84266 12.8026 2.03734C15.1993 2.23202 17.4457 3.28381 19.13 5H16C15.3961 4.94932 14.7911 5.08271 14.2645 5.38259C13.7379 5.68247 13.3145 6.13479 13.05 6.68L12.05 9.6C11.661 10.4927 11.5806 11.4896 11.8214 12.4331C12.0623 13.3766 12.6107 14.213 13.38 14.81C13.52 14.91 13.69 15.01 13.87 15.12C14.47 15.49 14.97 15.82 14.97 16.19C15 17.35 15 20.34 15 21.53ZM22 12C21.9965 13.7519 21.5327 15.4722 20.6552 16.9885C19.7777 18.5048 18.5172 19.764 17 20.64C17 19.22 17 17.11 17 16.18C17 14.66 15.7 13.88 14.93 13.41L14.57 13.18C14.1616 12.8393 13.8773 12.373 13.7616 11.8539C13.6458 11.3348 13.705 10.792 13.93 10.31L14.93 7.39C15.03 7.16 15.47 7 16.01 7H20.66C21.5409 8.51889 22.0032 10.2442 22 12Z" fill="#00B956"/>
</svg>
