<svg width="32" height="32" viewBox="0 0 32 32" fill="none" xmlns="http://www.w3.org/2000/svg">
<path d="M9.5 4C8.60999 4 7.73996 4.26392 6.99994 4.75839C6.25991 5.25285 5.68314 5.95566 5.34254 6.77792C5.00195 7.60019 4.91283 8.50499 5.08647 9.37791C5.2601 10.2508 5.68868 11.0526 6.31802 11.682C6.94736 12.3113 7.74918 12.7399 8.6221 12.9135C9.49501 13.0872 10.3998 12.9981 11.2221 12.6575C12.0443 12.3169 12.7471 11.7401 13.2416 11.0001C13.7361 10.26 14 9.39002 14 8.5C14 7.30653 13.5259 6.16193 12.682 5.31802C11.8381 4.47411 10.6935 4 9.5 4ZM9.5 11C9.00555 11 8.5222 10.8534 8.11108 10.5787C7.69995 10.304 7.37952 9.91352 7.1903 9.45671C7.00108 8.99989 6.95158 8.49723 7.04804 8.01227C7.1445 7.52732 7.3826 7.08186 7.73223 6.73223C8.08187 6.3826 8.52732 6.1445 9.01228 6.04804C9.49723 5.95157 9.9999 6.00108 10.4567 6.1903C10.9135 6.37952 11.304 6.69995 11.5787 7.11107C11.8534 7.5222 12 8.00555 12 8.5C12 8.8283 11.9353 9.15339 11.8097 9.45671C11.6841 9.76002 11.4999 10.0356 11.2678 10.2678C11.0356 10.4999 10.76 10.6841 10.4567 10.8097C10.1534 10.9353 9.82831 11 9.5 11Z" fill="#00b956"/>
<path d="M16 17L15.51 16.65C13.8661 15.5905 11.9557 15.0184 10 15C8.06018 15.0385 6.16946 15.6168 4.54 16.67L4 17L5.48 28H14.48L16 17ZM12.79 26H7.22L6.14 18C7.32761 17.3613 8.65167 17.0183 10 17C11.3582 17.0158 12.6926 17.3589 13.89 18L12.79 26Z" fill="#00b956"/>
<path d="M22.5 9C21.61 9 20.74 9.26392 19.9999 9.75839C19.2599 10.2529 18.6831 10.9557 18.3425 11.7779C18.002 12.6002 17.9128 13.505 18.0865 14.3779C18.2601 15.2508 18.6887 16.0526 19.318 16.682C19.9474 17.3113 20.7492 17.7399 21.6221 17.9135C22.495 18.0872 23.3998 17.9981 24.2221 17.6575C25.0443 17.3169 25.7471 16.7401 26.2416 16.0001C26.7361 15.26 27 14.39 27 13.5C27 12.3065 26.5259 11.1619 25.682 10.318C24.8381 9.47411 23.6935 9 22.5 9ZM22.5 16C22.0055 16 21.5222 15.8534 21.1111 15.5787C20.7 15.304 20.3795 14.9135 20.1903 14.4567C20.0011 13.9999 19.9516 13.4972 20.048 13.0123C20.1445 12.5273 20.3826 12.0819 20.7322 11.7322C21.0819 11.3826 21.5273 11.1445 22.0123 11.048C22.4972 10.9516 22.9999 11.0011 23.4567 11.1903C23.9135 11.3795 24.304 11.7 24.5787 12.1111C24.8534 12.5222 25 13.0055 25 13.5C25 14.163 24.7366 14.7989 24.2678 15.2678C23.7989 15.7366 23.163 16 22.5 16Z" fill="#00b956"/>
<path d="M26.6501 20.79C25.3496 20.2567 23.9557 19.9881 22.5501 20C21.1362 19.9782 19.7331 20.2506 18.4301 20.8L17.9501 21.03L16.8701 28.03H28.1201L27.1201 21.03L26.6501 20.79ZM19.0001 26L19.7401 22.43C20.6487 22.1415 21.5968 21.9964 22.5501 22C23.5032 21.999 24.4509 22.144 25.3601 22.43L26.0001 26H19.0001Z" fill="#00b956"/>
</svg>
