<svg width="24" height="24" viewBox="0 0 24 24" fill="none" xmlns="http://www.w3.org/2000/svg">
<path d="M12.4 20.8003L11.7 17.3003L14.5 14.5003L18.2 23.1003L19.8 23.4003L23 20.2003L20.2 8.80029L22.6 6.40029C23.3 5.70029 23.8 4.70029 23.9 3.80029C24 2.80029 23.7 1.80029 23 1.10029C21.6 -0.299712 19.2 -0.0997124 17.7 1.50029L15.3 3.90029L3.9 0.900288L0.7 4.10029L1 5.80029L9.6 9.50029L6.8 12.3003L3.3 11.6003L0 14.8003L0.3 16.4003L5.4 18.5003L7.5 23.6003L9.1 23.9003L12.4 20.8003ZM20.9 19.4003L19.5 20.8003L15.2 10.9003L9.5 16.6003L10.2 20.1003L8.8 21.5003L7 17.0003L2.5 15.1003L3.9 13.7003L7.4 14.4003L13.1 8.70029L3.2 4.50029L4.6 3.10029L16 5.90029L19.2 2.70029C20 1.90029 21.1 1.80029 21.7 2.30029C21.9 2.60029 22 3.00029 22 3.40029C22 3.90029 21.7 4.40029 21.3 4.80029L18 8.10029L20.9 19.4003Z" fill="#00B956"/>
</svg>
