<svg width="32" height="32" viewBox="0 0 32 32" fill="none" xmlns="http://www.w3.org/2000/svg">
<path d="M6.08 23H15V26H11V28H21V26H17V23H25.92C26.7351 23 27.517 22.6769 28.0944 22.1014C28.6717 21.526 28.9974 20.7451 29 19.93V7.07C28.9974 6.25487 28.6717 5.47402 28.0944 4.89857C27.517 4.32312 26.7351 4 25.92 4H6.08C5.26486 4 4.48296 4.32312 3.90564 4.89857C3.32831 5.47402 3.00265 6.25487 3 7.07V19.93C3.00265 20.7451 3.32831 21.526 3.90564 22.1014C4.48296 22.6769 5.26486 23 6.08 23ZM5 7.07C5.00264 6.7853 5.11758 6.51316 5.31984 6.31278C5.52209 6.1124 5.79529 5.99999 6.08 6H25.92C26.2047 5.99999 26.4779 6.1124 26.6802 6.31278C26.8824 6.51316 26.9974 6.7853 27 7.07V19.93C26.9974 20.2147 26.8824 20.4868 26.6802 20.6872C26.4779 20.8876 26.2047 21 25.92 21H6.08C5.79529 21 5.52209 20.8876 5.31984 20.6872C5.11758 20.4868 5.00264 20.2147 5 19.93V7.07Z" fill="#00B956"/>
<path d="M10.96 15C11.7884 15 12.46 14.3284 12.46 13.5C12.46 12.6716 11.7884 12 10.96 12C10.1315 12 9.45996 12.6716 9.45996 13.5C9.45996 14.3284 10.1315 15 10.96 15Z" fill="#00B956"/>
<path d="M15.96 15C16.7884 15 17.46 14.3284 17.46 13.5C17.46 12.6716 16.7884 12 15.96 12C15.1315 12 14.46 12.6716 14.46 13.5C14.46 14.3284 15.1315 15 15.96 15Z" fill="#00B956"/>
<path d="M20.96 15C21.7884 15 22.46 14.3284 22.46 13.5C22.46 12.6716 21.7884 12 20.96 12C20.1315 12 19.46 12.6716 19.46 13.5C19.46 14.3284 20.1315 15 20.96 15Z" fill="#00B956"/>
</svg>
