<svg width="25" height="25" viewBox="0 0 25 25" fill="none" xmlns="http://www.w3.org/2000/svg">
<path d="M3.23809 5.56898C3.73809 5.86898 3.93809 6.56898 3.63809 7.06898C3.33809 7.56898 2.63809 7.76898 2.13809 7.46898C1.63809 7.16898 1.43809 6.46898 1.73809 5.96898C2.03809 5.46898 2.63809 5.26898 3.23809 5.56898ZM5.13809 3.36898C5.53809 3.76898 5.53809 4.46898 5.13809 4.96898C4.73809 5.46898 4.03809 5.36898 3.53809 4.96898C3.13809 4.56898 3.13809 3.86898 3.53809 3.36898C3.93809 2.86898 4.73809 2.96898 5.13809 3.36898ZM7.53809 1.86898C7.83809 2.36898 7.63809 3.06898 7.13809 3.36898C6.63809 3.66898 5.93809 3.46898 5.63809 2.96898C5.33809 2.46898 5.53809 1.76898 6.03809 1.46898C6.63809 1.16898 7.23809 1.36898 7.53809 1.86898ZM24.1381 11.969C24.1381 16.669 21.3381 20.969 17.1381 22.969C12.9381 24.969 7.93809 24.269 4.33809 21.269C0.738091 18.269 -0.761909 13.469 0.438091 8.96898L2.33809 9.46898C1.23809 13.769 3.13809 18.369 7.03809 20.669C10.9381 22.969 15.9381 22.269 19.1381 19.069C22.3381 15.869 22.9381 10.969 20.7381 6.96898C18.5381 2.96898 13.9381 1.06898 9.53809 2.26898L9.03809 0.368981C12.6381 -0.531019 16.4381 0.268981 19.4381 2.46898C22.4381 4.66898 24.1381 8.26898 24.1381 11.969ZM7.70809 17.707L6.29309 16.293L16.2931 6.29298L17.7071 7.70698L7.70709 17.707H7.70809ZM8.00009 12C7.20444 12 6.44138 11.6839 5.87877 11.1213C5.31616 10.5587 5.00009 9.79563 5.00009 8.99998C5.00009 8.20433 5.31616 7.44127 5.87877 6.87866C6.44138 6.31605 7.20444 5.99998 8.00009 5.99998C8.79574 5.99998 9.5588 6.31605 10.1214 6.87866C10.684 7.44127 11.0001 8.20433 11.0001 8.99998C11.0001 9.79563 10.684 10.5587 10.1214 11.1213C9.5588 11.6839 8.79574 12 8.00009 12ZM8.00009 9.99998C8.26531 9.99998 8.51966 9.89462 8.7072 9.70709C8.89473 9.51955 9.00009 9.2652 9.00009 8.99998C9.00009 8.73476 8.89473 8.48041 8.7072 8.29287C8.51966 8.10534 8.26531 7.99998 8.00009 7.99998C7.73487 7.99998 7.48052 8.10534 7.29298 8.29287C7.10545 8.48041 7.00009 8.73476 7.00009 8.99998C7.00009 9.2652 7.10545 9.51955 7.29298 9.70709C7.48052 9.89462 7.73487 9.99998 8.00009 9.99998ZM16.0001 18C15.2044 18 14.4414 17.6839 13.8788 17.1213C13.3162 16.5587 13.0001 15.7956 13.0001 15C13.0001 14.2043 13.3162 13.4413 13.8788 12.8787C14.4414 12.3161 15.2044 12 16.0001 12C16.7957 12 17.5588 12.3161 18.1214 12.8787C18.684 13.4413 19.0001 14.2043 19.0001 15C19.0001 15.7956 18.684 16.5587 18.1214 17.1213C17.5588 17.6839 16.7957 18 16.0001 18ZM16.0001 16C16.2653 16 16.5197 15.8946 16.7072 15.7071C16.8947 15.5196 17.0001 15.2652 17.0001 15C17.0001 14.7348 16.8947 14.4804 16.7072 14.2929C16.5197 14.1053 16.2653 14 16.0001 14C15.7349 14 15.4805 14.1053 15.293 14.2929C15.1054 14.4804 15.0001 14.7348 15.0001 15C15.0001 15.2652 15.1054 15.5196 15.293 15.7071C15.4805 15.8946 15.7349 16 16.0001 16Z" fill="#00B956"/>
</svg>
