<svg width="24" height="25" viewBox="0 0 24 25" fill="none" xmlns="http://www.w3.org/2000/svg">
<path d="M14 22H2.6C1.16406 22 0 20.8359 0 19.4V11.6C0 10.164 1.16406 8.99999 2.6 8.99999H16.4947V9.00208C16.5297 9.00069 16.5648 8.99999 16.6 8.99999H21.4C22.8359 8.99999 24 10.164 24 11.6V22.4C24 23.8359 22.8359 25 21.4 25H16.6C15.1641 25 14 23.8359 14 22.4V22ZM14.0696 11H2.6C2.26863 11 2 11.2686 2 11.6V19.4C2 19.7314 2.26863 20 2.6 20H14V11.6C14 11.3935 14.0241 11.1926 14.0696 11ZM22 22.4V11.6C22 11.2686 21.7314 11 21.4 11H16.6C16.2686 11 16 11.2686 16 11.6V22.4C16 22.7314 16.2686 23 16.6 23H21.4C21.7314 23 22 22.7314 22 22.4ZM19 22.6C18.5582 22.6 18.2 22.2418 18.2 21.8C18.2 21.3582 18.5582 21 19 21C19.4418 21 19.8 21.3582 19.8 21.8C19.8 22.2418 19.4418 22.6 19 22.6ZM7 25V23H13V25H7ZM10.4261 7.79999C9.98423 7.79999 9.62606 7.44182 9.62606 6.99999C9.62606 6.55816 9.98423 6.19999 10.4261 6.19999C10.8679 6.19999 11.2261 6.55816 11.2261 6.99999C11.2261 7.44182 10.8679 7.79999 10.4261 7.79999ZM13.4142 4.43406L12 5.84827C11.1409 4.98912 9.74788 4.98912 8.88873 5.84827L7.47452 4.43406C9.11472 2.79386 11.774 2.79386 13.4142 4.43406ZM15.677 2.17132L14.2627 3.58553C12.1539 1.4767 8.73482 1.4767 6.62599 3.58553L5.21177 2.17132C8.10166 -0.718564 12.7871 -0.718564 15.677 2.17132Z" fill="#00B956"/>
</svg>
