<svg width="18" height="24" viewBox="0 0 18 24" fill="none" xmlns="http://www.w3.org/2000/svg">
<path d="M12.5 5.34L10.72 0H7.28L5.5 5.34L4.72 3H0V15C0 17.3869 0.948211 19.6761 2.63604 21.364C4.32387 23.0518 6.61305 24 9 24C11.3869 24 13.6761 23.0518 15.364 21.364C17.0518 19.6761 18 17.3869 18 15V3H13.28L12.5 5.34ZM16 15C16 16.8565 15.2625 18.637 13.9497 19.9497C12.637 21.2625 10.8565 22 9 22C7.14348 22 5.36301 21.2625 4.05025 19.9497C2.7375 18.637 2 16.8565 2 15V13H16V15ZM14.72 5H16V11H2V5H3.28L4.28 8H6.72L8.72 2H9.28L11.28 8H13.72L14.72 5Z" fill="#554FC9"/>
</svg>
