<svg width="32" height="32" viewBox="0 0 32 32" fill="none" xmlns="http://www.w3.org/2000/svg">
<path d="M11 11.91V20.08L12.32 21L21 17.22V14.64L12.25 11L11 11.91ZM13 13.49L19 15.93L13 18.47V13.49Z" fill="#00B956"/>
<path d="M24.74 7H19.59L20.89 4.39L19.11 3.5L17.36 7H14.64L12.89 3.5L11.1 4.39L12.41 7H7.26C6.39621 7.00264 5.56854 7.34695 4.95775 7.95775C4.34695 8.56854 4.00264 9.39621 4 10.26V21.74C4.00264 22.6038 4.34695 23.4315 4.95775 24.0423C5.56854 24.6531 6.39621 24.9974 7.26 25H24.75C25.1768 25 25.5994 24.9159 25.9937 24.7526C26.388 24.5893 26.7463 24.3499 27.0481 24.0481C27.3499 23.7463 27.5893 23.388 27.7526 22.9937C27.9159 22.5994 28 22.1768 28 21.75V10.26C27.9974 9.39621 27.6531 8.56854 27.0423 7.95775C26.4315 7.34695 25.6038 7.00264 24.74 7ZM26 21.75C26 22.0815 25.8683 22.3995 25.6339 22.6339C25.3995 22.8683 25.0815 23 24.75 23H7.26C6.92664 22.9974 6.60767 22.8638 6.37194 22.6281C6.1362 22.3923 6.00261 22.0734 6 21.74V10.26C6.00261 9.92664 6.1362 9.60767 6.37194 9.37193C6.60767 9.1362 6.92664 9.00261 7.26 9H24.74C25.0734 9.00261 25.3923 9.1362 25.6281 9.37193C25.8638 9.60767 25.9974 9.92664 26 10.26V21.75Z" fill="#00B956"/>
</svg>
