<?xml version="1.0" encoding="utf-8"?>
<!-- Generator: Adobe Illustrator 25.3.1, SVG Export Plug-In . SVG Version: 6.00 Build 0)  -->
<svg version="1.1" id="Слой_1" xmlns="http://www.w3.org/2000/svg" xmlns:xlink="http://www.w3.org/1999/xlink" x="0px" y="0px"
	 viewBox="0 0 29.8 22.3" style="enable-background:new 0 0 29.8 22.3;" xml:space="preserve">
<g>
	<path d="M14.9,17.7c-1.3,0-2.3,1-2.3,2.3s1,2.3,2.3,2.3c1.3,0,2.3-1,2.3-2.3S16.2,17.7,14.9,17.7z"/>
	<path d="M9.1,14l-0.4,0.3l2.4,2.4l0.4-0.3c2-1.8,5-1.8,7,0l0.4,0.3l2.4-2.4L20.7,14C17.4,11.1,12.4,11.1,9.1,14z"/>
	<path d="M29.4,5.8c-8.1-7.7-20.9-7.7-29.1,0L0,6.1l2.4,2.4l0.4-0.3c6.8-6.5,17.5-6.5,24.3,0l0.4,0.3l2.4-2.4L29.4,5.8z"/>
	<path d="M4.5,9.9l-0.4,0.3l2.4,2.5l0.4-0.3c4.7-4.2,11.9-4.2,16.6,0l0.4,0.3l2.4-2.5l-0.4-0.3C19.7,4.6,10.5,4.6,4.5,9.9z"/>
</g>
</svg>
