<svg xmlns="http://www.w3.org/2000/svg" width="24" height="21.337" viewBox="0 0 24 21.337"><path d="M22.756,10a9.334,9.334,0,1,0,0,9.334L23.91,20a10.668,10.668,0,1,1,0-10.668ZM26,12H24.67v2h-2v1.333h2v2H26v-2h2V14H26ZM13.335,18.668V17.334H14V16h-.667V14H12v2H9.528l1.647-5.127-1.267-.407L8.1,16.094l-.067.347.58.893H12v1.333Zm6.934-6.154.8-1.073a4.074,4.074,0,0,0-5.234.373,4,4,0,0,0,5.234,6.054l.267-.2V14H18.669v1.333H20v1.647a2.714,2.714,0,0,1-3.22-.427,2.667,2.667,0,0,1,0-3.78A2.72,2.72,0,0,1,20.269,12.514Z" transform="translate(-4.004 -3.999)"/></svg>