<svg xmlns="http://www.w3.org/2000/svg" width="20.902" height="24" viewBox="0 0 20.902 24">
    <defs>
        <style>.a{fill:#333;}</style>
    </defs>
    <path class="a"
          d="M25.409,27.85V18.892H26.9V11.427H23.5a4.479,4.479,0,1,0-7.047-5.449A4.479,4.479,0,1,0,9.4,11.427H6v7.465H7.493V27.85ZM8.986,18.892H15.7v7.465H8.986Zm14.93,7.465H17.2V18.892h6.719Zm-3.733-20.9a2.986,2.986,0,1,1,0,5.972H17.2V8.441A2.986,2.986,0,0,1,20.184,5.455ZM9.733,8.441a2.986,2.986,0,0,1,5.972,0v2.986H12.719A2.986,2.986,0,0,1,9.733,8.441ZM7.493,12.92H25.409V17.4H7.493Z"
          transform="translate(-6 -3.85)"/>
</svg>