<svg xmlns="http://www.w3.org/2000/svg" width="28.512" height="24" viewBox="0 0 28.512 24"><g transform="translate(-1 -4.007)"><path d="M29.173,17.044V16A12,12,0,0,0,8.69,7.519L9.747,8.577A10.5,10.5,0,0,1,27.673,16v1.043l-.885-2.25-1.365.885L27.853,19H29l2.422-3.323-1.365-.855Z" transform="translate(-1.91)"/><path d="M15.25,29.5A10.5,10.5,0,0,1,4.75,19V17.958l.885,2.25L7,19.323,4.57,16H3.43L1,19.323l1.365.855.885-2.25V19a12,12,0,0,0,20.483,8.483l-1.058-1.057A10.425,10.425,0,0,1,15.25,29.5Z" transform="translate(0 -2.988)"/></g></svg>