<?xml version="1.0" encoding="utf-8"?>
<!-- Generator: Adobe Illustrator 25.3.1, SVG Export Plug-In . SVG Version: 6.00 Build 0)  -->
<svg version="1.1" id="Слой_1" xmlns="http://www.w3.org/2000/svg" xmlns:xlink="http://www.w3.org/1999/xlink" x="0px" y="0px"
	 viewBox="0 0 32 32" style="enable-background:new 0 0 32 32;" xml:space="preserve">
<style type="text/css">
	.st0{fill:#FFFFFF;}
	.st1{fill:#D8D8D8;}
	.st2{fill:#333333;}
</style>
<g>
	<path class="st0" d="M16,31.5c-8.5,0-15.5-7-15.5-15.5c0-8.5,7-15.5,15.5-15.5s15.5,7,15.5,15.5C31.5,24.5,24.5,31.5,16,31.5z"/>
	<path class="st1" d="M16,1c8.3,0,15,6.7,15,15s-6.7,15-15,15S1,24.3,1,16S7.7,1,16,1 M16,0C7.2,0,0,7.2,0,16c0,8.8,7.2,16,16,16
		s16-7.2,16-16C32,7.2,24.8,0,16,0L16,0z"/>
</g>
<g>
	<rect x="15" y="9" transform="matrix(0.7071 -0.7071 0.7071 0.7071 -6.6274 15.9994)" class="st2" width="2" height="14"/>
	<rect x="9" y="15" transform="matrix(0.7071 -0.7071 0.7071 0.7071 -6.6274 16.0006)" class="st2" width="14" height="2"/>
</g>
</svg>
