<svg xmlns="http://www.w3.org/2000/svg" width="24.075" height="24" viewBox="0 0 24.075 24"><g transform="translate(-4 -4)"><path d="M27.5,19A4.5,4.5,0,1,0,23,14.5,4.5,4.5,0,0,0,27.5,19Zm0-7.5a3,3,0,1,1-3,3A3,3,0,0,1,27.5,11.5Z" transform="translate(-4.754 -1.501)"/><path d="M10.432,13a4.5,4.5,0,1,0-4.5-4.5A4.5,4.5,0,0,0,10.432,13Zm0-7.5a3,3,0,1,1-3,3A3,3,0,0,1,10.432,5.5Z" transform="translate(-0.482)"/><path d="M4,19.5l1.5,12h9l1.5-12A14.061,14.061,0,0,0,9.95,18,13.963,13.963,0,0,0,4,19.5ZM13.184,30H6.709l-1.1-9.589A10.024,10.024,0,0,1,9.95,19.5a10.182,10.182,0,0,1,4.427.915Z" transform="translate(0 -3.506)"/><path d="M32.292,30.58h0L31.684,25l-.368-.18A10.024,10.024,0,0,0,27.227,24a9.656,9.656,0,0,0-4.089.833l-.36.188-.608,5.567h0l-.2,1.546v.188h0L21.9,33H32.554Zm-8.726.923.608-5.485a8.839,8.839,0,0,1,3.054-.518,9.124,9.124,0,0,1,3.054.525l.608,5.477Z" transform="translate(-4.479 -5.003)"/></g></svg>