<?xml version="1.0" encoding="utf-8"?>
<!-- Generator: Adobe Illustrator 25.3.1, SVG Export Plug-In . SVG Version: 6.00 Build 0)  -->
<svg version="1.1" id="Слой_2" xmlns="http://www.w3.org/2000/svg" xmlns:xlink="http://www.w3.org/1999/xlink" x="0px" y="0px"
	 viewBox="0 0 32 32" style="enable-background:new 0 0 32 32;" xml:space="preserve">
<style type="text/css">
	.st0{fill:#731982;}
	.st1{fill:#FFFFFF;}
</style>
<circle class="st0" cx="16" cy="16" r="16"/>
<g id="Block_16" transform="translate(-5 -2)">
	<path id="Контур_576" class="st1" d="M20.5,20.9V23h1v-2.1c0.5-0.3,0.6-0.9,0.4-1.4s-0.9-0.6-1.4-0.4s-0.6,0.9-0.4,1.4
		C20.2,20.6,20.3,20.8,20.5,20.9z"/>
	<path id="Контур_577" class="st1" d="M21,26c2.8,0,5-2.2,5-5v-5h-1v-2c0-2.2-1.8-4-4-4s-4,1.8-4,4v2h-1v5
		C16,23.8,18.2,26,21,26z M18,14c0-1.7,1.3-3,3-3s3,1.3,3,3v2h-6V14z M17,17h8v4c0,2.2-1.8,4-4,4s-4-1.8-4-4V17z"/>
</g>
</svg>
