<?xml version="1.0" encoding="utf-8"?>
<!-- Generator: Adobe Illustrator 25.3.1, SVG Export Plug-In . SVG Version: 6.00 Build 0)  -->
<svg version="1.1" id="Слой_2" xmlns="http://www.w3.org/2000/svg" xmlns:xlink="http://www.w3.org/1999/xlink" x="0px" y="0px"
	 viewBox="0 0 32 32" style="enable-background:new 0 0 32 32;" xml:space="preserve">
<style type="text/css">
	.st0{fill:#731982;}
	.st1{fill:#FFFFFF;}
</style>
<circle class="st0" cx="16" cy="16" r="16"/>
<path id="Mobile-internet_16" class="st1" d="M22.1,12.5c-1.9-3.3-6.2-4.5-9.6-2.6S8,16.2,9.9,19.5s6.2,4.5,9.6,2.6
	c1.1-0.6,1.9-1.5,2.6-2.6l0.9,0.5c-2.2,3.8-7.1,5.1-10.9,2.9S6.9,15.8,9.1,12S16.2,6.9,20,9.1c1.2,0.7,2.2,1.7,2.9,2.9L22.1,12.5z
	 M24.5,14h-1v1.5H22v1h1.5V18h1v-1.5H26v-1h-1.5V14z M15,19v-1h0.5v-1H15v-1.5h-1V17h-1.9l1.2-3.9l-1-0.3l-1.3,4.2L11,17.3l0.4,0.7
	H14v1H15z M20.2,14.4l0.6-0.8c-1.2-0.9-2.9-0.8-3.9,0.3c-1.2,1.2-1.2,3.1-0.1,4.2c1.1,1.1,2.8,1.2,4,0.3l0.2-0.1v-2.8h-2v1h1v1.2
	c-1,0.5-2.2,0.2-2.7-0.7c-0.5-1-0.2-2.2,0.7-2.7C18.7,13.9,19.6,13.9,20.2,14.4z"/>
</svg>
