<?xml version="1.0" encoding="utf-8"?>
<!-- Generator: Adobe Illustrator 25.3.1, SVG Export Plug-In . SVG Version: 6.00 Build 0)  -->
<svg version="1.1" id="Слой_2" xmlns="http://www.w3.org/2000/svg" xmlns:xlink="http://www.w3.org/1999/xlink" x="0px" y="0px"
	 viewBox="0 0 32 32" style="enable-background:new 0 0 32 32;" xml:space="preserve">
<style type="text/css">
	.st0{fill:#731982;}
	.st1{fill:#FFFFFF;}
</style>
<circle class="st0" cx="16" cy="16" r="16"/>
<path class="st1" d="M24.3,17.6c-0.6,2.9-2.7,5.4-5.5,6.4c-2.3,0.8-4.8,0.5-6.8-0.6l-3.7,1.1l-1.8-2l1.7-3.3c-0.4-1-0.6-2.1-0.6-3.2
	c0-4.7,3.8-8.5,8.4-8.5C21.2,7.5,25.4,12.2,24.3,17.6z M23.4,16c0-5.2-5.3-9.1-10.8-6.7c-2.1,1-3.6,3-3.9,5.2
	c-0.2,1.6-0.1,3.1,0.6,4.5l0.1,0.2l-1.6,3.1l0.9,1l3.4-1l0.2,0.1c1.1,0.6,2.4,1,3.7,1C20.1,23.4,23.4,20,23.4,16z M11.3,18.1v-4.2
	h1.1v4.2H11.3z M15.5,19.1v-6.3h1.1v6.4h-1.1V19.1z M13.4,17v-2.1h1.1V17H13.4z M17.6,16.5v-1.1h1.1v1.1H17.6z M19.7,18.1v-4.2h1.1
	v4.2H19.7z"/>
</svg>
