<?xml version="1.0" encoding="utf-8"?>
<!-- Generator: Adobe Illustrator 25.3.1, SVG Export Plug-In . SVG Version: 6.00 Build 0)  -->
<svg version="1.1" id="Слой_2" xmlns="http://www.w3.org/2000/svg" xmlns:xlink="http://www.w3.org/1999/xlink" x="0px" y="0px"
	 viewBox="0 0 32 32" style="enable-background:new 0 0 32 32;" xml:space="preserve">
<style type="text/css">
	.st0{fill:#731982;}
	.st1{fill:#FFFFFF;}
</style>
<circle class="st0" cx="16" cy="16" r="16"/>
<path class="st1" d="M18.3,7.8L18,7.5h-4L12.7,9H10v3l-2.5,2.8v1.7H9v6h14v-6h1.5v-1.7L18.3,7.8z M23.5,15.5H22v6H10v-6H8.5v-0.3
	l2.5-2.8V10h2.1l1.3-1.4l0.1-0.1h3l6,6.7V15.5z M16.7,18c0,0.4-0.3,0.8-0.8,0.8s-0.8-0.3-0.8-0.8s0.3-0.8,0.8-0.8S16.7,17.6,16.7,18
	z M16,15.2c0.9,0,1.8,0.4,2.5,1l-0.7,0.7c-1-1-2.6-1-3.5,0l-0.8-0.6C14.2,15.6,15.1,15.2,16,15.2L16,15.2z M19.9,14.7l-0.7,0.7
	c-1.8-1.8-4.6-1.8-6.4,0l-0.7-0.7C14.3,12.5,17.7,12.5,19.9,14.7L19.9,14.7z"/>
</svg>
