<?xml version="1.0" encoding="utf-8"?>
<!-- Generator: Adobe Illustrator 25.3.1, SVG Export Plug-In . SVG Version: 6.00 Build 0)  -->
<svg version="1.1" id="Слой_2" xmlns="http://www.w3.org/2000/svg" xmlns:xlink="http://www.w3.org/1999/xlink" x="0px" y="0px"
	 viewBox="0 0 32 32" style="enable-background:new 0 0 32 32;" xml:space="preserve">
<style type="text/css">
	.st0{fill:#731982;}
	.st1{fill:#FFFFFF;}
</style>
<circle class="st0" cx="16" cy="16" r="16"/>
<g>
	<path class="st1" d="M22.5,8.1h-13c-1.1,0-2,0.9-2,2v8.4c0,1.1,0.9,2,2,2h5.8v2h-2.6v1.3h6.5v-1.3h-2.5v-2h5.8c1.1,0,2-0.9,2-2
		v-8.4C24.5,9.1,23.6,8.1,22.5,8.1z M23.2,18.6c0,0.4-0.3,0.7-0.7,0.7h-13c-0.4,0-0.7-0.3-0.7-0.7v-8.4c0-0.4,0.3-0.7,0.7-0.7h13
		c0.4,0,0.7,0.3,0.7,0.7V18.6z"/>
	<circle class="st1" cx="12.7" cy="14.4" r="1"/>
	<circle class="st1" cx="16" cy="14.4" r="1"/>
	<circle class="st1" cx="19.2" cy="14.4" r="1"/>
</g>
</svg>
