<?xml version="1.0" encoding="utf-8"?>
<!-- Generator: Adobe Illustrator 25.3.1, SVG Export Plug-In . SVG Version: 6.00 Build 0)  -->
<svg version="1.1" id="Слой_2" xmlns="http://www.w3.org/2000/svg" xmlns:xlink="http://www.w3.org/1999/xlink" x="0px" y="0px"
	 viewBox="0 0 32 32" style="enable-background:new 0 0 32 32;" xml:space="preserve">
<style type="text/css">
	.st0{fill:#731982;}
	.st1{fill:#FFFFFF;}
</style>
<circle class="st0" cx="16" cy="16" r="16"/>
<path id="Settings_16" class="st1" d="M16,13c-1.7,0-3,1.3-3,3s1.3,3,3,3s3-1.3,3-3S17.7,13,16,13z M16,18c-1.1,0-2-0.9-2-2
	s0.9-2,2-2s2,0.9,2,2S17.1,18,16,18z M24,14.6l-2.1-1.1l0.7-2.2l-2-2l-2.2,0.8l-1-2.1h-2.8l-1.1,2.1l-2.2-0.7l-2,2l0.8,2.2l-2.1,1
	v2.8l2.1,1.1l-0.8,2.2l2,2l2.2-0.8l1,2.1h2.8l1.1-2.1l2.2,0.8l2-2l-0.8-2.2l2.1-1V14.6z M23,16.8l-2,1l-0.2,0.5l0.7,2.2l-1.1,1.1
	l-2.2-0.7L17.8,21l-1,2h-1.6l-1-2l-0.5-0.2l-2.2,0.7l-1.1-1.1l0.7-2.2L11,17.8l-2-1v-1.5l2-1l0.2-0.5l-0.7-2.2l1.1-1.1l2.2,0.7
	l0.5-0.2l1-2h1.5l1,2l0.5,0.2l2.2-0.7l1.1,1.1l-0.7,2.2l0.2,0.5l2,1L23,16.8z"/>
</svg>
