<?xml version="1.0" encoding="utf-8"?>
<!-- Generator: Adobe Illustrator 25.3.1, SVG Export Plug-In . SVG Version: 6.00 Build 0)  -->
<svg version="1.1" id="Слой_2" xmlns="http://www.w3.org/2000/svg" xmlns:xlink="http://www.w3.org/1999/xlink" x="0px" y="0px"
	 viewBox="0 0 32 32" style="enable-background:new 0 0 32 32;" xml:space="preserve">
<style type="text/css">
	.st0{fill:#731982;}
	.st1{fill:#FFFFFF;}
</style>
<circle class="st0" cx="16" cy="16" r="16"/>
<g>
	<path class="st1" d="M12.9,13.5v5.1l0.8,0.6l5.4-2.4v-1.6l-5.4-2.3L12.9,13.5z M14.1,14.5l3.8,1.5l-3.8,1.6V14.5z"/>
	<path class="st1" d="M21.5,10.4h-11c-1.1,0-2,0.9-2,2v7.2c0,1.1,0.9,2,2,2h11c1.1,0,2-0.9,2-2v-7.2C23.5,11.3,22.6,10.4,21.5,10.4z
		 M22.3,19.6c0,0.4-0.3,0.8-0.8,0.8h-11c-0.4,0-0.8-0.4-0.8-0.8v-7.2c0-0.4,0.4-0.8,0.8-0.8h11c0.4,0,0.8,0.4,0.8,0.8V19.6z"/>
</g>
</svg>
