<?xml version="1.0" encoding="utf-8"?>
<!-- Generator: Adobe Illustrator 25.3.1, SVG Export Plug-In . SVG Version: 6.00 Build 0)  -->
<svg version="1.1" id="Слой_2" xmlns="http://www.w3.org/2000/svg" xmlns:xlink="http://www.w3.org/1999/xlink" x="0px" y="0px"
	 viewBox="0 0 32 32" style="enable-background:new 0 0 32 32;" xml:space="preserve">
<style type="text/css">
	.st0{fill:#731982;}
	.st1{fill:#FFFFFF;}
</style>
<circle class="st0" cx="16" cy="16" r="16"/>
<path id="wi-fi" class="st1" d="M17.1,21.4c0,0.6-0.5,1.1-1.1,1.1s-1.1-0.5-1.1-1.1c0-0.6,0.5-1.1,1.1-1.1
	C16.6,20.3,17.1,20.8,17.1,21.4z M24.5,13.1c-4.7-4.7-12.3-4.7-17,0c0,0,0,0,0,0l0,0l0.8,0.8c4.2-4.3,11-4.3,15.3-0.1
	c0,0,0.1,0.1,0.1,0.1L24.5,13.1z M18.3,19.2l0.8-0.8c-1.7-1.7-4.5-1.7-6.2,0l0.8,0.8C15,18,17,18,18.3,19.2z M21.8,15.8
	c-3.2-3.2-8.4-3.2-11.6,0l0,0l0.8,0.8c2.7-2.8,7.1-2.8,9.9-0.1c0,0,0.1,0.1,0.1,0.1L21.8,15.8z"/>
</svg>
