<?xml version="1.0" encoding="utf-8"?>
<!-- Generator: Adobe Illustrator 25.3.1, SVG Export Plug-In . SVG Version: 6.00 Build 0)  -->
<svg version="1.1" id="Слой_2" xmlns="http://www.w3.org/2000/svg" xmlns:xlink="http://www.w3.org/1999/xlink" x="0px" y="0px"
	 viewBox="0 0 32 32" style="enable-background:new 0 0 32 32;" xml:space="preserve">
<style type="text/css">
	.st0{fill:#731982;}
	.st1{fill:#FFFFFF;}
</style>
<circle class="st0" cx="16" cy="16" r="16"/>
<path class="st1" d="M9.6,7.8c0,0.1-0.1,0.1-0.1,0.2v16c0,0.1,0.1,0.2,0.1,0.3l7.9-8.3L9.6,7.8z M18.1,16.5l2.1,2.1
	c0,0-6.6,3.7-8.6,4.9C11.5,23.5,18.1,16.5,18.1,16.5z M18.6,15.9l2.2,2.3c0.3-0.2,3-1.7,3.4-1.9c0.4-0.2,0.3-0.6,0-0.7
	c-0.3-0.2-3-1.7-3.4-1.9C20.8,13.6,18.6,15.9,18.6,15.9z M18.1,15.4l2.1-2.2l-3-1.7c0,0-4.8-2.8-6.4-3.7
	C10.7,7.8,18.1,15.4,18.1,15.4z"/>
</svg>
