<svg id="b6f48f0abf0700bb07b51fd0d1909d52" xmlns="http://www.w3.org/2000/svg" xmlns:xlink="http://www.w3.org/1999/xlink" width="176" height="52.148" viewBox="0 0 176 52.148">
  <defs>
    <linearGradient id="linear-gradient" x1="0.915" y1="1.03" x2="-0.386" y2="0.361" gradientUnits="objectBoundingBox">
      <stop offset="0" stop-color="#00a0ff"/>
      <stop offset="0.01" stop-color="#00a1ff"/>
      <stop offset="0.26" stop-color="#00beff"/>
      <stop offset="0.51" stop-color="#00d2ff"/>
      <stop offset="0.76" stop-color="#00dfff"/>
      <stop offset="1" stop-color="#00e3ff"/>
    </linearGradient>
    <linearGradient id="linear-gradient-2" x1="1.077" y1="0.734" x2="-1.306" y2="0.734" gradientUnits="objectBoundingBox">
      <stop offset="0" stop-color="#ffe000"/>
      <stop offset="0.41" stop-color="#ffbd00"/>
      <stop offset="0.78" stop-color="orange"/>
      <stop offset="1" stop-color="#ff9c00"/>
    </linearGradient>
    <linearGradient id="linear-gradient-3" x1="0.862" y1="-0.023" x2="-0.501" y2="-1.792" gradientUnits="objectBoundingBox">
      <stop offset="0" stop-color="#ff3a44"/>
      <stop offset="1" stop-color="#c31162"/>
    </linearGradient>
    <linearGradient id="linear-gradient-4" x1="-0.188" y1="2.696" x2="0.421" y2="1.906" gradientUnits="objectBoundingBox">
      <stop offset="0" stop-color="#32a071"/>
      <stop offset="0.07" stop-color="#2da771"/>
      <stop offset="0.48" stop-color="#15cf74"/>
      <stop offset="0.8" stop-color="#06e775"/>
      <stop offset="1" stop-color="#00f076"/>
    </linearGradient>
  </defs>
  <path id="Контур_39" data-name="Контур 39" d="M169.742,52.148H6.167A6.18,6.18,0,0,1,0,45.982V6.167A6.167,6.167,0,0,1,6.167,0H169.742A6.258,6.258,0,0,1,176,6.167V45.982A6.258,6.258,0,0,1,169.742,52.148Z" transform="translate(0)"/>
  <path id="Контур_40" data-name="Контур 40" d="M77.162,23.323a5.656,5.656,0,1,0,5.683,5.656,5.576,5.576,0,0,0-5.683-5.656Zm0,9.09a3.434,3.434,0,1,1,3.194-3.434,3.274,3.274,0,0,1-3.194,3.434Zm-12.39-9.09a5.656,5.656,0,1,0,5.669,5.656,5.576,5.576,0,0,0-5.683-5.656Zm0,9.09a3.434,3.434,0,1,1,3.181-3.434,3.274,3.274,0,0,1-3.194,3.434ZM50.012,25.067v2.4h5.749a5.017,5.017,0,0,1-1.331,3.021A5.882,5.882,0,0,1,50,32.24a6.388,6.388,0,1,1,0-12.776,6.122,6.122,0,0,1,4.352,1.717l1.69-1.69A8.371,8.371,0,0,0,50.012,17a8.8,8.8,0,1,0,0,17.581A7.769,7.769,0,0,0,58.223,26.5,7.813,7.813,0,0,0,58.09,25Zm60.3,1.863a5.229,5.229,0,0,0-10.168,2.05,5.536,5.536,0,0,0,5.616,5.656,5.63,5.63,0,0,0,4.711-2.5l-1.93-1.331a3.234,3.234,0,0,1-2.781,1.57,2.875,2.875,0,0,1-2.742-1.717l7.573-3.128Zm-7.719,1.89a3.1,3.1,0,0,1,2.955-3.3,2.2,2.2,0,0,1,2.1,1.2ZM96.446,34.3h2.489V17.667H96.446Zm-4.072-9.715H92.28A3.993,3.993,0,0,0,89.3,23.257a5.669,5.669,0,0,0,0,11.326,3.859,3.859,0,0,0,2.981-1.331h.08v.812c0,2.169-1.158,3.327-3.021,3.327a3.128,3.128,0,0,1-2.848-2.01l-2.169.9a5.39,5.39,0,0,0,5.017,3.34c2.915,0,5.323-1.717,5.323-5.9V23.656H92.373Zm-2.848,7.825a3.447,3.447,0,0,1,0-6.867,3.194,3.194,0,0,1,3.021,3.434,3.167,3.167,0,0,1-3.034,3.434Zm32.446-14.746h-5.962V34.3H118.5V27.995h3.474a5.177,5.177,0,1,0,0-10.327Zm0,7.985H118.5V19.983h3.527a2.855,2.855,0,0,1,0,5.709Zm15.345-2.4a4.658,4.658,0,0,0-4.432,2.542l2.209.918a2.356,2.356,0,0,1,2.262-1.224,2.4,2.4,0,0,1,2.662,2.143v.173a5.5,5.5,0,0,0-2.6-.639c-2.382,0-4.791,1.331-4.791,3.74a3.846,3.846,0,0,0,4.126,3.66,3.5,3.5,0,0,0,3.194-1.6h.08V34.3h2.4V27.9c0-2.915-2.209-4.6-5.044-4.6Zm-.306,9.116c-.812,0-1.943-.413-1.943-1.411,0-1.331,1.411-1.77,2.662-1.77a4.418,4.418,0,0,1,2.262.559,3.008,3.008,0,0,1-2.915,2.662Zm14.147-8.717-2.848,7.213h-.08l-2.954-7.213h-2.662l4.432,10.088-2.529,5.6h2.6l6.814-15.691ZM128.786,34.3h2.489V17.667h-2.489Z" transform="translate(9.857 4.537)" fill="#fff"/>
  <path id="Контур_41" data-name="Контур 41" d="M10.587,7.56A2.519,2.519,0,0,0,10,9.363v28.48a2.521,2.521,0,0,0,.612,1.8l.093.09L27.17,23.8v-.373L10.68,7.47Z" transform="translate(3.307 2.472)" fill="url(#linear-gradient)"/>
  <path id="Контур_42" data-name="Контур 42" d="M28.357,27.112l-5.457-5.5V21.23l5.457-5.51.12.067L35.011,19.5c1.863,1.051,1.863,2.781,0,3.846l-6.508,3.7Z" transform="translate(6.904 4.658)" fill="url(#linear-gradient-2)"/>
  <path id="Контур_43" data-name="Контур 43" d="M32.639,25.616,27.023,20,10.44,36.583a2.169,2.169,0,0,0,2.768.08L32.652,25.616" transform="translate(3.454 5.817)" fill="url(#linear-gradient-3)"/>
  <path id="Контур_44" data-name="Контур 44" d="M32.642,18.641,13.2,7.594a2.169,2.169,0,0,0-2.768.08l16.6,16.583Z" transform="translate(3.451 2.075)" fill="url(#linear-gradient-4)"/>
  <path id="Контур_45" data-name="Контур 45" d="M32.479,24.13,13.195,35.11a2.223,2.223,0,0,1-2.662,0h0l-.093.093h0l.093.093h0a2.209,2.209,0,0,0,2.662,0L32.639,24.25Z" transform="translate(3.454 7.146)" opacity="0.2"/>
  <path id="Контур_46" data-name="Контур 46" d="M10.593,32.783a2.662,2.662,0,0,1-.612-1.863v.2a2.662,2.662,0,0,0,.612,1.863l.093-.093Z" transform="translate(3.301 9.357)" opacity="0.12"/>
  <path id="Контур_47" data-name="Контур 47" d="M33.654,21.73,27,25.5l.12.12,6.535-3.7A2.329,2.329,0,0,0,34.985,20h0A2.475,2.475,0,0,1,33.654,21.73Z" transform="translate(8.166 6.01)" opacity="0.12"/>
  <path id="Контур_48" data-name="Контур 48" d="M13.34,7.779,39.279,22.525a2.475,2.475,0,0,1,1.331,1.73h0a2.329,2.329,0,0,0-1.331-1.916L13.34,7.593C11.491,6.528,10,7.406,10,9.536v.2C10,7.606,11.491,6.728,13.34,7.779Z" transform="translate(3.309 2.076)" fill="#fff" opacity="0.25"/>
  <path id="Контур_49" data-name="Контур 49" d="M42.355,16.675H41.37V14.014h.838a3.806,3.806,0,0,0,1.011-3.061V7h5.323v7h.892v2.662H48.45V14.985h-6.1Zm1.85-5.683a5.323,5.323,0,0,1-.759,3.061h3.993V7.985H44.2Z" transform="translate(12.511 2.084)" fill="#fff" stroke="#fff" stroke-miterlimit="10" stroke-width="0.2"/>
  <path id="Контур_50" data-name="Контур 50" d="M55.157,13.992a4.152,4.152,0,0,1-5.856,0,4.086,4.086,0,0,1-1.171-2.955,4.106,4.106,0,1,1,8.211,0,4.086,4.086,0,0,1-1.184,2.955Zm-5.1-.665a3.074,3.074,0,0,0,4.339,0,3.128,3.128,0,0,0,.892-2.289A3.128,3.128,0,0,0,54.4,8.748a3.074,3.074,0,0,0-4.339,0,3.128,3.128,0,0,0-.878,2.289,3.128,3.128,0,0,0,.878,2.289Z" transform="translate(14.554 2.05)" fill="#fff" stroke="#fff" stroke-miterlimit="10" stroke-width="0.2"/>
  <path id="Контур_51" data-name="Контур 51" d="M59.213,15.2a4.072,4.072,0,0,1-4.152-4.166A4.072,4.072,0,0,1,59.213,6.87,3.686,3.686,0,0,1,62.14,8.2l-.719.692A2.662,2.662,0,0,0,59.2,7.882a3.021,3.021,0,0,0-2.209.878,3.088,3.088,0,0,0-.878,2.276,3.088,3.088,0,0,0,.892,2.3,3.021,3.021,0,0,0,2.209.878,3.154,3.154,0,0,0,2.422-1.145l.719.719a3.886,3.886,0,0,1-1.331,1.038,4.192,4.192,0,0,1-1.81.373Z" transform="translate(16.658 2.052)" fill="#fff" stroke="#fff" stroke-miterlimit="10" stroke-width="0.2"/>
  <path id="Контур_52" data-name="Контур 52" d="M64.491,14.985H63.466v-7H61.23V7h5.483v.985H64.491Z" transform="translate(18.543 2.092)" fill="#fff" stroke="#fff" stroke-miterlimit="10" stroke-width="0.2"/>
  <path id="Контур_53" data-name="Контур 53" d="M72.232,7,69.21,13.734a2.01,2.01,0,0,1-1.837,1.424,2.049,2.049,0,0,1-.8-.173l.266-.945a1.078,1.078,0,0,0,.532.146.945.945,0,0,0,.559-.133,1.251,1.251,0,0,0,.359-.506l.293-.639L65.87,7h1.211l1.97,4.578h0L71.02,7Z" transform="translate(19.939 2.092)" fill="#fff" stroke="#fff" stroke-miterlimit="10" stroke-width="0.2"/>
  <path id="Контур_54" data-name="Контур 54" d="M71.52,14.985V7H77.3v7.985H76.271v-7H72.545v7Z" transform="translate(21.656 2.092)" fill="#fff" stroke="#fff" stroke-miterlimit="10" stroke-width="0.2"/>
  <path id="Контур_55" data-name="Контур 55" d="M77.23,14.985V7h1.025v3.42h3.993V7h1.025v7.985H82.247V11.379H78.255v3.607Z" transform="translate(23.382 2.092)" fill="#fff" stroke="#fff" stroke-miterlimit="10" stroke-width="0.2"/>
  <path id="Контур_56" data-name="Контур 56" d="M89.81,13.992a4.152,4.152,0,0,1-5.856,0,4.086,4.086,0,0,1-1.184-2.955,4.106,4.106,0,1,1,8.211,0A4.086,4.086,0,0,1,89.81,13.992Zm-5.1-.665a3.074,3.074,0,0,0,4.339,0,3.128,3.128,0,0,0,.878-2.289,3.127,3.127,0,0,0-.892-2.289,3.074,3.074,0,0,0-4.339,0,3.128,3.128,0,0,0-.878,2.289,3.128,3.128,0,0,0,.892,2.289Z" transform="translate(25.03 2.05)" fill="#fff" stroke="#fff" stroke-miterlimit="10" stroke-width="0.2"/>
  <path id="Контур_57" data-name="Контур 57" d="M92.09,14.985V7h2.888a2.342,2.342,0,0,1,1.624.612,2.01,2.01,0,0,1,.692,1.557,1.744,1.744,0,0,1-.293,1,1.85,1.85,0,0,1-.785.652h0a2.023,2.023,0,0,1,.972.692,1.81,1.81,0,0,1,.386,1.145,2.09,2.09,0,0,1-.719,1.624,2.462,2.462,0,0,1-1.7.652Zm1.025-4.565h1.863a1.2,1.2,0,0,0,.932-.386,1.184,1.184,0,0,0,.053-1.7,1.145,1.145,0,0,0-.892-.386H93.115Zm0,3.58h2.063a1.224,1.224,0,0,0,.958-.413,1.318,1.318,0,0,0-.958-2.236H93.115Z" transform="translate(27.889 2.092)" fill="#fff" stroke="#fff" stroke-miterlimit="10" stroke-width="0.2"/>
</svg>
