<?xml version="1.0" encoding="utf-8"?>
<!-- Generator: Adobe Illustrator 25.4.1, SVG Export Plug-In . SVG Version: 6.00 Build 0)  -->
<svg version="1.1" id="Слой_1" xmlns="http://www.w3.org/2000/svg" xmlns:xlink="http://www.w3.org/1999/xlink" x="0px" y="0px"
	 viewBox="0 0 116 40" style="enable-background:new 0 0 116 40;" xml:space="preserve">
<style type="text/css">
	.st0{fill:#FFFFFF;}
	.st1{fill:none;stroke:#D8D8D8;}
	.st2{fill:#00B956;}
	.st3{fill:#731982;}
</style>
<g id="лого_мф" transform="translate(-628 -747)">
	<g id="Прямоугольник_475" transform="translate(628 747)">
		<path class="st0" d="M20,0h76c11,0,20,9,20,20l0,0c0,11-9,20-20,20H20C9,40,0,31,0,20l0,0C0,9,9,0,20,0z"/>
		<path class="st1" d="M20,0.5h76c10.8,0,19.5,8.7,19.5,19.5l0,0c0,10.8-8.7,19.5-19.5,19.5H20C9.2,39.5,0.5,30.8,0.5,20l0,0
			C0.5,9.2,9.2,0.5,20,0.5z"/>
	</g>
	<g id="Artboard" transform="translate(643 759.996)">
		<g id="logo_mftv_green" transform="translate(0 0.005)">
			<path id="Path" class="st2" d="M13.7,6.8c0,0.9-0.2,1.9-0.6,2.7c0,0.1-0.1,0.2-0.1,0.3c-1.7,3.4-5.8,4.8-9.2,3.1
				c-1.3-0.7-2.4-1.8-3.1-3.1c0-0.1-0.1-0.2-0.1-0.3C0.2,8.7,0,7.8,0,6.8c0-1,0.2-2.1,0.7-3c0-0.1,0.1-0.2,0.1-0.3
				C1.2,3,1.6,2.5,2,2c2.7-2.7,7-2.7,9.7,0c0.5,0.5,0.8,1,1.1,1.5c0.1,0.1,0.1,0.2,0.1,0.3C13.4,4.8,13.7,5.8,13.7,6.8L13.7,6.8z"/>
			<path id="Path-2" class="st0" d="M5.9,10.1c0.3,0.1,0.6,0.1,0.9,0.1c1.9,0,3.4-1.5,3.4-3.4S8.7,3.4,6.8,3.4S3.4,4.9,3.4,6.8
				c0,0,0,0,0,0c0,0.5,0.1,1,0.3,1.4L3.3,8.4C3.1,7.9,2.9,7.3,3,6.8c0-2.1,1.7-3.9,3.9-3.9s3.9,1.7,3.9,3.9S9,10.7,6.8,10.7
				c-0.4,0-0.7,0-1-0.1L5.9,10.1z"/>
			<path id="Path-3" class="st0" d="M8.8,6.8L5.7,5.3v3.2L8.8,6.8z"/>
			<circle id="Oval" class="st3" cx="3.8" cy="8.9" r="0.4"/>
			<circle id="Oval-2" class="st3" cx="4.4" cy="9.6" r="0.4"/>
			<circle id="Oval-3" class="st0" cx="5.3" cy="10.1" r="0.4"/>
			<path id="Path-4" class="st2" d="M17.1,3h3l1.7,5.2L23.5,3h2.9v7.9h-2.3v-5l-1.4,5h-1.7l-1.6-5.1v5.1h-2.3V3z"/>
			<path id="Shape" class="st2" d="M33.6,8.6h-4.1c0,0.5,0.4,1,0.9,1c0,0,0.1,0,0.1,0c0.5,0,0.8-0.2,0.9-0.5h2.2c-0.2,1.2-1.4,2-3,2
				c-2,0-3.3-1.1-3.3-3c-0.1-1.6,1.2-3,2.8-3c0.1,0,0.3,0,0.4,0c1.9,0,3.2,1.1,3.2,2.7C33.7,8.1,33.7,8.3,33.6,8.6L33.6,8.6z
				 M31.5,7.4c0.1-0.5-0.3-1-0.8-1c-0.1,0-0.1,0-0.2,0c-0.5,0-1,0.4-1,0.9c0,0,0,0.1,0,0.1H31.5z"/>
			<path id="Path-5" class="st2" d="M38.5,7.3h-1.8v3.6h-2.2V5.3h4L38.5,7.3z"/>
			<path id="Shape-2" class="st2" d="M38.9,8.1c0-1.7,1-3,2.6-3c0.7-0.1,1.4,0.3,1.7,1V5.3h2.2v5.6h-2.2v-0.8c-0.3,0.7-1,1-1.8,1
				C39.9,11.1,38.9,9.8,38.9,8.1z M43.3,8.1C43.4,7.5,43,7,42.4,6.9c-0.6-0.1-1.1,0.3-1.2,0.9c0,0.1,0,0.2,0,0.3
				c-0.1,0.6,0.4,1.1,0.9,1.2c0.6,0.1,1.1-0.4,1.2-0.9C43.3,8.2,43.3,8.2,43.3,8.1z"/>
			<path id="Shape-3" class="st2" d="M51.9,10.2v0.7h-2.4v-0.7c-1.8,0.1-3.3-1.3-3.4-3c0-0.1,0-0.2,0-0.3c0-1.7,1.3-3.2,3.1-3.2
				c0.1,0,0.2,0,0.3,0V3h2.4v0.7c1.8-0.1,3.3,1.3,3.4,3c0,0.1,0,0.2,0,0.2c0,1.8-1.4,3.3-3.2,3.3C52,10.2,52,10.2,51.9,10.2z
				 M49.6,8.3h0.2V5.5h-0.2c-0.7,0-1.1,0.6-1.1,1.4S48.9,8.3,49.6,8.3L49.6,8.3z M53,6.9c0-0.8-0.4-1.4-1.1-1.4h-0.2v2.8h0.2
				C52.6,8.3,53,7.7,53,6.9z"/>
			<path id="Shape-4" class="st2" d="M55.6,8.1c-0.2-1.8,1.2-3.4,3-3.6s3.4,1.2,3.6,3s-1.2,3.4-3,3.6c-0.1,0-0.2,0-0.3,0
				c-1.6,0.2-3.1-1-3.3-2.7C55.6,8.3,55.6,8.2,55.6,8.1z M60,8.1C60,7.5,59.6,7,59,6.9c-0.6-0.1-1.1,0.3-1.2,0.9c0,0.1,0,0.2,0,0.3
				c-0.1,0.6,0.3,1.1,0.9,1.2s1.1-0.3,1.2-0.9C60,8.3,60,8.2,60,8.1L60,8.1z"/>
			<path id="Path-6" class="st2" d="M63,5.3h2.2v1.9h1.7V5.3h2.2v5.6h-2.2v-2h-1.7v2H63V5.3z"/>
			<path id="Path-7" class="st2" d="M74.5,5h-2V3h6.4v2h-2v5.9h-2.4L74.5,5z"/>
			<path id="Shape-5" class="st2" d="M86.2,8.7c0,1.3-1,2.2-2.6,2.2h-4V3h3.9c1.6,0,2.5,0.8,2.5,2c0.1,0.9-0.6,1.7-1.5,1.8
				C85.5,6.9,86.3,7.8,86.2,8.7z M82,4.5v1.7h0.7c0.5,0.1,0.9-0.3,0.9-0.7c0,0,0-0.1,0-0.1c0-0.5-0.4-0.8-0.9-0.8L82,4.5z M83.8,8.4
				c0-0.5-0.4-0.9-0.8-0.9c0,0-0.1,0-0.1,0H82v1.7h0.8c0.5,0.1,0.9-0.3,1-0.7C83.8,8.5,83.8,8.4,83.8,8.4L83.8,8.4z"/>
		</g>
	</g>
</g>
</svg>
