<?xml version="1.0" encoding="utf-8"?>
<!-- Generator: Adobe Illustrator 25.4.1, SVG Export Plug-In . SVG Version: 6.00 Build 0)  -->
<svg version="1.1" id="Слой_1" xmlns="http://www.w3.org/2000/svg" xmlns:xlink="http://www.w3.org/1999/xlink" x="0px" y="0px"
	 viewBox="0 0 116 40" style="enable-background:new 0 0 116 40;" xml:space="preserve">
<style type="text/css">
	.st0{fill:#1E252E;}
	.st1{fill:#FFFFFF;}
</style>
<path id="Прямоугольник_475" class="st0" d="M20,0h76c11,0,20,9,20,20l0,0c0,11-9,20-20,20H20C9,40,0,31,0,20l0,0
	C0,9,9,0,20,0z"/>
<path class="st1" d="M43.8,12.9v3.9h-3.1v-3.9c0-0.7-0.4-1.2-1-1.2c-0.6,0-0.9,0.5-0.9,1.2v2.3c0,1.6,0.2,2.1,1.2,2.7l1.4,0.9
	c1.7,1.1,2.4,2.3,2.4,4.7v3.1c0,2.4-1.3,4-4.1,4c-2.7,0-4-1.5-4-4v-4h3.1v4c0,0.8,0.3,1.2,1,1.2s1-0.5,1-1.2v-2.5
	c0-1.5-0.2-2-1.3-2.7L38,20.5c-1.8-1.2-2.3-2.2-2.3-4.8v-2.9c0-2.5,1.3-4,4.1-4C42.5,8.8,43.8,10.4,43.8,12.9z M44.8,12.2H47v18.2
	h3.1V12.2h2.2v-3h-7.5V12.2z M72.8,9.1v3H75v18.2h3.1V12.2h2.2v-3H72.8z M60.1,9.1l1.7,21.2h-3.2l-0.4-5.7H56l-0.4,5.7h-3.1
	l1.8-21.2H60.1z M58.1,21.8L57.3,12H57l-0.7,9.8H58.1z M72.2,30.4H69c-0.4-0.4-0.6-1-0.5-1.6v-7.3h-1.9v8.9h-3.1V9.1h4.3
	c2.7,0,4.1,1.4,4.1,3.7v3.6c0,1.9-0.8,3.1-2.4,3.3v0.4c1.6,0.3,2.3,1.3,2.3,3.1v5.5C71.6,29.4,71.8,30,72.2,30.4z M68.7,16.6l0-2.6
	c0-1.6-0.3-2-1.2-2h-0.8v6.6h0.7C68.4,18.6,68.7,18.2,68.7,16.6z"/>
</svg>
