<svg xmlns="http://www.w3.org/2000/svg" width="15" height="24" viewBox="0 0 15 24">
  <g id="Сгруппировать_50" data-name="Сгруппировать 50" transform="translate(-148.819 -182.835)">
    <path id="Контур_16" data-name="Контур 16" d="M160.819,206.835a3,3,0,0,0,3-3v-18a3,3,0,0,0-3-3h-9a3,3,0,0,0-3,3v18a3,3,0,0,0,3,3Zm-10.5-3v-18a1.5,1.5,0,0,1,1.5-1.5h9a1.5,1.5,0,0,1,1.5,1.5v18a1.5,1.5,0,0,1-1.5,1.5h-9A1.5,1.5,0,0,1,150.319,203.835Zm9-16.5h-6v-1.5h6Zm-1.5,15a1.5,1.5,0,1,1-1.5-1.5A1.5,1.5,0,0,1,157.819,202.335Z"/>
  </g>
</svg>
