<?xml version="1.0" encoding="utf-8"?>
<!-- Generator: Adobe Illustrator 25.3.1, SVG Export Plug-In . SVG Version: 6.00 Build 0)  -->
<svg version="1.1" id="Слой_1" xmlns="http://www.w3.org/2000/svg" xmlns:xlink="http://www.w3.org/1999/xlink" x="0px" y="0px"
	 viewBox="0 0 48 48" style="enable-background:new 0 0 48 48;" xml:space="preserve">
<style type="text/css">
	.st0{fill:#141414;}
	.st1{fill-rule:evenodd;clip-rule:evenodd;fill:#FFFFFF;}
</style>
<g>
	<path class="st0" d="M38,48H10C4.5,48,0,43.5,0,38V10C0,4.5,4.5,0,10,0h28c5.5,0,10,4.5,10,10v28C48,43.5,43.5,48,38,48z"/>
</g>
<path class="st1" d="M47.9,17.9v2c-0.5-0.3-1.2-0.4-1.8-0.4c-2,0-3.7,1.3-4.3,3.2H48v1.7h-6.4c0.2,2.3,2.1,4.1,4.5,4.1
	c0.6,0,1.3-0.2,1.8-0.4v2c-0.6,0.2-1.2,0.3-1.8,0.3c-3.5,0-6.4-2.9-6.4-6.4c0-3.6,2.9-6.4,6.4-6.4C46.8,17.6,47.4,17.7,47.9,17.9
	L47.9,17.9z M0,19.6v-1.9c0.2-0.1,0.4-0.1,0.7-0.1c1.8,0,3.5,0.9,4.5,2.4c1-1.5,2.7-2.4,4.5-2.4l0,0c3,0,5.4,2.4,5.4,5.4l0,0v7h-1.8
	v-7c0-2-1.6-3.6-3.6-3.6c-2,0-3.6,1.6-3.6,3.6v7H4.3v-7c0-2-1.6-3.6-3.6-3.6C0.4,19.5,0.2,19.5,0,19.6L0,19.6z M38,17.6
	c-3,0-5.3,2.4-5.4,5.4l0,0v7h1.8v-7c0-1.9,1.6-3.6,3.6-3.6h0.1v-1.9H38L38,17.6L38,17.6z M23.8,17.6c-3.5,0-6.4,2.9-6.4,6.4
	s2.9,6.4,6.4,6.4s6.4-2.9,6.4-6.4S27.3,17.6,23.8,17.6z"/>
</svg>
