<svg xmlns="http://www.w3.org/2000/svg" width="16.322" height="31.965" viewBox="0 0 16.322 31.965">
  <g id="Сгруппировать_291" data-name="Сгруппировать 291" transform="translate(-354 -285)">
    <g id="wi-fi" transform="translate(354 285)">
      <path id="Контур_14" data-name="Контур 14" d="M74.41,271.8l.959.983a10.486,10.486,0,0,1,14.4,0l.959-.983A11.884,11.884,0,0,0,74.41,271.8Zm5.005,4.737.959.983a3.321,3.321,0,0,1,4.393,0l.959-.983A4.773,4.773,0,0,0,79.415,276.535Z" transform="translate(-74.41 -268.552)"/>
      <path id="Контур_15" data-name="Контур 15" d="M138.03,364.2l.956,1a7.515,7.515,0,0,1,9.948,0l.956-1A8.957,8.957,0,0,0,138.03,364.2Z" transform="translate(-135.682 -358.557)"/>
    </g>
    <path id="Phone_32" d="M10,25.763H23.6V4H10Zm1.36-20.4H22.242V24.4H11.36Zm6.8,16.322a1.36,1.36,0,1,1-1.36-1.36A1.36,1.36,0,0,1,18.161,21.683Z" transform="translate(345.36 291.202)"/>
  </g>
</svg>
