<svg xmlns="http://www.w3.org/2000/svg" width="22" height="25.132" viewBox="0 0 22 25.132"><path d="M26.436,9.507a13.362,13.362,0,0,0-18.864,0L6.448,8.4a14.934,14.934,0,0,1,21.12,0Zm-13.362,5.5,1.108,1.108a4.024,4.024,0,0,1,5.557,0l1.155-1.108a5.636,5.636,0,0,0-7.781,0Zm11.153-3.3a10.218,10.218,0,0,0-14.447,0l1.108,1.108a8.646,8.646,0,0,1,12.23,0ZM6,20.1l.527-.181a31.911,31.911,0,0,1,20.947,0L28,20.1v9.055H6Zm1.572,7.483H26.436V21.234a30.269,30.269,0,0,0-18.864,0Zm6.288-3.144h6.288V22.869H13.86Z" transform="translate(-6 -4.025)"/></svg>