<svg xmlns="http://www.w3.org/2000/svg" width="48.65" height="51.144" viewBox="0 0 48.65 51.144">
  <g id="Сгруппировать_118" data-name="Сгруппировать 118" transform="translate(-12084 -5920)">
    <path id="Контур_109" data-name="Контур 109" d="M139.5,121.607h0l-14.586-5.633a.8.8,0,0,0-1.06.983l4.585,15.16A24.567,24.567,0,0,1,139.5,121.607Z" transform="translate(11960.334 5804.082)" fill="#fff"/>
    <path id="Контур_124" data-name="Контур 124" d="M139.7,121.682h0l-14.777-5.707a.815.815,0,0,0-1.074,1l4.645,15.358A24.89,24.89,0,0,1,139.7,121.682Z" transform="translate(11960.732 5804.479)" fill="#731982"/>
    <rect id="Прямоугольник_101" data-name="Прямоугольник 101" width="3.603" height="3.603" rx="1.802" transform="translate(12118.379 5965.483) rotate(55.016)" fill="#b808d4"/>
    <rect id="Прямоугольник_102" data-name="Прямоугольник 102" width="3.603" height="3.603" rx="1.802" transform="translate(12097.767 5966.125) rotate(55.016)" fill="#f7f753"/>
    <rect id="Прямоугольник_103" data-name="Прямоугольник 103" width="3.603" height="3.603" rx="1.802" transform="matrix(0.225, 0.974, -0.974, 0.225, 12087.512, 5965.832)" fill="#e8486d"/>
    <circle id="Эллипс_48" data-name="Эллипс 48" cx="23.183" cy="23.183" r="23.183" transform="translate(12086.159 5923.557)" fill="#ffd939"/>
    <path id="Контур_104" data-name="Контур 104" d="M577.589,397.152a12.049,12.049,0,0,0-1.337.08,3.537,3.537,0,0,0-2.434,1.22c-.5.874.9.813,1.692.717a12.693,12.693,0,0,1,1.833-.1c1.521.035,3.993.274,5.463,1.377C585.043,402.127,583.206,396.834,577.589,397.152Z" transform="translate(11540.618 5541.877)" fill="#8c5106"/>
    <path id="Контур_105" data-name="Контур 105" d="M278.755,397.152a12.047,12.047,0,0,1,1.337.08,3.537,3.537,0,0,1,2.434,1.22c.5.874-.9.813-1.692.717a12.694,12.694,0,0,0-1.833-.1c-1.521.035-3.993.274-5.463,1.377C271.3,402.127,273.138,396.834,278.755,397.152Z" transform="translate(11821.788 5541.877)" fill="#8c5106"/>
    <path id="Контур_106" data-name="Контур 106" d="M509.75,601.672c-.973-.7.873-1.7,1.3-2.068s1.548-.976,1.543-1.937c-.005-.917-2.144-1.441-2.827-1.679a14.726,14.726,0,0,0-2.761-.814c-.629-.084-1.058.413-.362.8a12.257,12.257,0,0,0,1.592.66,4.48,4.48,0,0,1,1.318.639c.546.448.882.929.174,1.374-.96.6-2.03,1-2.944,1.691-1.946,1.477,2.4,2.841,3.093,3.42.588.492.178,1-.343,1.285-1.154.637-1.939.764-2.89,1.289-.7.387-.265.883.367.8a7.344,7.344,0,0,0,.946-.25,13.428,13.428,0,0,0,4.074-1.593c.345-.241.639-.519.5-.971-.219-.709-.826-1.025-1.236-1.4A16.507,16.507,0,0,0,509.75,601.672Z" transform="translate(11603.583 5356.96)" fill="#8c5106"/>
    <circle id="Эллипс_49" data-name="Эллипс 49" cx="3.826" cy="3.826" r="3.826" transform="translate(12091.144 5951.978) rotate(-76.717)" fill="#ff941e"/>
    <circle id="Эллипс_50" data-name="Эллипс 50" cx="3.826" cy="3.826" r="3.826" transform="translate(12117.655 5951.978) rotate(-76.717)" fill="#ff941e"/>
    <path id="Контур_107" data-name="Контур 107" d="M549.782,482.019s3.644-.021,4.295,2.494a.309.309,0,0,1-.283.386,2.957,2.957,0,0,1-1.367-.368c-1.245-.6-4.49-.689-6.913.37-.59.258-.578-.881.2-1.615C546.472,482.571,547.025,482.063,549.782,482.019Z" transform="translate(11567.34 5462.615)" fill="#8c5106"/>
    <path id="Контур_108" data-name="Контур 108" d="M321.094,482.019s-3.644-.021-4.295,2.494a.309.309,0,0,0,.283.386,2.957,2.957,0,0,0,1.367-.368c1.245-.6,4.49-.689,6.913.37.59.258.578-.881-.2-1.615C324.4,482.571,323.851,482.063,321.094,482.019Z" transform="translate(11780.534 5462.615)" fill="#8c5106"/>
    <path id="Контур_110" data-name="Контур 110" d="M169.111,181.286c1.41-1.505,6.112-6.47,8.736-8.608l-1.918-.741a71.972,71.972,0,0,0-7.554,6.917Z" transform="translate(11919.123 5752.169)" fill="#fff"/>
    <path id="Контур_111" data-name="Контур 111" d="M150.166,145.927a37.052,37.052,0,0,0-4.606,3.645l.713,2.356a64.754,64.754,0,0,1,5.925-5.216Z" transform="translate(11940.428 5776.457)" fill="#fff"/>
    <path id="Контур_112" data-name="Контур 112" d="M130.3,122.754a7.957,7.957,0,0,0-1.761,1.454l.705,2.332a14.026,14.026,0,0,1,3.152-2.976Z" transform="translate(11956.321 5798.096)" fill="#fff"/>
    <rect id="Прямоугольник_104" data-name="Прямоугольник 104" width="2.187" height="4.382" transform="translate(12118.433 5956.055)" fill="#731982"/>
    <path id="Контур_113" data-name="Контур 113" d="M675.742,598.631c-2.836-3.143-.1-4.749.888-5.125s3.758-.308,3.826,3.553-4.612,3.382-4.612,3.382H668.67v-1.811h7.072" transform="translate(11451.948 5358.646)" fill="#b808d4"/>
    <path id="Контур_114" data-name="Контур 114" d="M775,644.8c-.156.156-.531.034-.838-.273s-.429-.682-.273-.838.531-.034.838.273S775.155,644.642,775,644.8Z" transform="translate(11353.759 5311.712)" fill="#fff"/>
    <path id="Контур_115" data-name="Контур 115" d="M793.943,610.834c-.046.216-.427.319-.851.229s-.732-.337-.687-.553.427-.319.851-.229S793.989,610.618,793.943,610.834Z" transform="translate(11336.409 5342.874)" fill="#fff"/>
    <path id="Контур_116" data-name="Контур 116" d="M813.314,637.6c-.155-.033-.22-.345-.146-.7s.26-.613.415-.581.22.345.146.7S813.468,637.634,813.314,637.6Z" transform="translate(11317.045 5318.53)" fill="#fff"/>
    <path id="Контур_117" data-name="Контур 117" d="M831.349,638.936a.373.373,0,0,0-.168-.072c-.368-.053-.751.49-.856,1.213s.108,1.353.476,1.406a.359.359,0,0,0,.062,0,3.2,3.2,0,0,0,.522-1.937C831.382,639.332,831.369,639.129,831.349,638.936Z" transform="translate(11301.021 5316.157)" fill="#fff"/>
    <path id="Контур_118" data-name="Контур 118" d="M710.482,685.108a.865.865,0,1,0-1.695.086h1.678A.842.842,0,0,0,710.482,685.108Z" transform="translate(11414.512 5273.893)" fill="#fff"/>
    <path id="Контур_119" data-name="Контур 119" d="M784.336,682.77a.968.968,0,0,0-1.084,1.174,6.4,6.4,0,0,0,1.914-.267A.97.97,0,0,0,784.336,682.77Z" transform="translate(11344.976 5275.163)" fill="#fff"/>
    <path id="Контур_120" data-name="Контур 120" d="M746.218,673.727a.811.811,0,0,0,.919-.686c0-.011,0-.023,0-.034h-1.611A.81.81,0,0,0,746.218,673.727Z" transform="translate(11380.179 5284.271)" fill="#fff"/>
    <path id="Контур_121" data-name="Контур 121" d="M683.34,673.049c0-.014,0-.028,0-.042h-1.72a.865.865,0,0,0,1.716.042Z" transform="translate(11439.853 5284.271)" fill="#fff"/>
    <path id="Контур_122" data-name="Контур 122" d="M775.5,627.52c4.35.228,3.673-1.947,3.284-2.555a1.762,1.762,0,0,0-1.687-.645c-.658.117-.777.524-.777.524,1.936-.82,2.719.33,2.448,1.549-.3,1.365-3.143.922-3.143.922Z" transform="translate(11352.194 5329.757)" fill="#731982"/>
    <path id="Контур_123" data-name="Контур 123" d="M559.789,662.237h-3.8c-.429.373-2.274,1.372-1.3,2.068a16.489,16.489,0,0,1,1.543,1.238l3.555.04Z" transform="translate(11558.644 5294.328)" fill="#731982"/>
    <rect id="Прямоугольник_105" data-name="Прямоугольник 105" width="3.603" height="3.603" rx="1.802" transform="translate(12103.94 5921.055) rotate(34.223)" fill="#fbaf49"/>
    <rect id="Прямоугольник_106" data-name="Прямоугольник 106" width="3.603" height="3.603" rx="1.802" transform="matrix(0.304, 0.953, -0.953, 0.304, 12116.913, 5927.136)" fill="#e8486d"/>
    <rect id="Прямоугольник_107" data-name="Прямоугольник 107" width="3.603" height="3.603" rx="1.802" transform="translate(12123.66 5920.917) rotate(34.223)" fill="#b808d4"/>
    <rect id="Прямоугольник_108" data-name="Прямоугольник 108" width="3.603" height="3.603" rx="1.802" transform="translate(12130.584 5933.238) rotate(55.016)" fill="#f7f753"/>
    <rect id="Прямоугольник_109" data-name="Прямоугольник 109" width="3.603" height="3.603" rx="1.802" transform="translate(12128.86 5964.644) rotate(72.332)" fill="#fbaf49"/>
    <rect id="Прямоугольник_110" data-name="Прямоугольник 110" width="3.603" height="3.603" rx="1.802" transform="matrix(0.225, 0.974, -0.974, 0.225, 12088.85, 5953.795)" fill="#b808d4"/>
  </g>
</svg>
