<?xml version="1.0" encoding="utf-8"?>
<!-- Generator: Adobe Illustrator 25.3.1, SVG Export Plug-In . SVG Version: 6.00 Build 0)  -->
<svg version="1.1" id="Слой_1" xmlns="http://www.w3.org/2000/svg" xmlns:xlink="http://www.w3.org/1999/xlink" x="0px" y="0px"
	 viewBox="0 0 29.8 28" style="enable-background:new 0 0 29.8 28;" xml:space="preserve">
<g>
	<path d="M20.3,13.6C20.3,13.6,20.3,13.6,20.3,13.6c1.3,0,2.3-1,2.3-2.3c0-1.3-1-2.3-2.3-2.3c-1.2,0-2.2,0.9-2.3,2.1l0,0.2
		C18,12.6,19.1,13.6,20.3,13.6z"/>
	<path d="M14.9,13.6C14.9,13.6,14.9,13.6,14.9,13.6c1.3,0,2.3-1,2.3-2.3c0-1.3-1-2.3-2.3-2.3c-1.2,0-2.2,0.9-2.3,2.1l0,0.2
		C12.6,12.6,13.7,13.6,14.9,13.6z"/>
	<path d="M25.7,0H4.1C1.8,0,0,1.8,0,4.1v14.4c0,2.3,1.8,4.1,4.1,4.1h9.4v2.6H7.2V28h15.4v-2.8h-6.3v-2.6h9.4c2.3,0,4.1-1.8,4.1-4.1
		V4.1C29.8,1.8,28,0,25.7,0z M4.1,2.8h21.6c0.7,0,1.3,0.6,1.3,1.3v14.4c0,0.7-0.6,1.3-1.3,1.3H4.1c-0.7,0-1.3-0.6-1.3-1.3V4.1
		C2.8,3.4,3.4,2.8,4.1,2.8z"/>
	<path d="M9.5,13.6C9.5,13.6,9.5,13.6,9.5,13.6c1.3,0,2.3-1,2.3-2.3c0-1.3-1-2.3-2.3-2.3c-1.2,0-2.2,0.9-2.3,2.1l0,0.2
		c0,0.6,0.2,1.2,0.7,1.6C8.3,13.4,8.9,13.6,9.5,13.6z"/>
</g>
</svg>
