<svg xmlns="http://www.w3.org/2000/svg" width="24" height="17.998" viewBox="0 0 24 17.998">
    <g transform="translate(-74.41 -268.552)">
        <ellipse cx="1.555" cy="1.514" rx="1.555" ry="1.514" transform="translate(84.895 283.522)"/>
        <path d="M74.41,273.324l1.41,1.445a15.418,15.418,0,0,1,21.18,0l1.41-1.445A17.475,17.475,0,0,0,74.41,273.324Zm7.36,6.966,1.41,1.445a4.883,4.883,0,0,1,6.46,0l1.41-1.445A7.019,7.019,0,0,0,81.77,280.29Z"/>
        <path d="M138.03,365.259l1.4,1.464a11.049,11.049,0,0,1,14.627,0l1.4-1.464A13.17,13.17,0,0,0,138.03,365.259Z"
              transform="translate(-60.167 -88.404)"/>
    </g>
</svg>