<svg xmlns="http://www.w3.org/2000/svg" width="24" height="24" viewBox="0 0 24 24">
    <g transform="translate(-4 -4)">
        <path fill="#fff" d="M15,16h2V28H15Z"/>
        <circle fill="#fff" cx="2" cy="2" r="2" transform="translate(14 14)"/>
        <path fill="#fff" d="M16,4a12,12,0,0,0-4.8,23l.4-2A10.008,10.008,0,1,1,26,16a10.075,10.075,0,0,1-5.6,9l.4,2A12,12,0,0,0,16,4"/>
        <path fill="#fff" d="M12.3,21.9l.5-2.2a5,5,0,1,1,6.6,0l.5,2.2A6.845,6.845,0,0,0,23.2,16a7,7,0,0,0-14,0,6.279,6.279,0,0,0,3.1,5.9"/>
    </g>
</svg>